<?xml version="1.0" standalone="no"?>
<!DOCTYPE svg PUBLIC "-//W3C//DTD SVG 20010904//EN"
 "http://www.w3.org/TR/2001/REC-SVG-20010904/DTD/svg10.dtd">
<svg version="1.0" xmlns="http://www.w3.org/2000/svg"
 width="1024.000000pt" height="1024.000000pt" viewBox="0 0 1024.000000 1024.000000"
 preserveAspectRatio="xMidYMid meet">

<g transform="translate(0.000000,1024.000000) scale(0.100000,-0.100000)"
fill="#000000" stroke="none">
<path d="M5075 8995 c-48 -24 -59 -50 -63 -157 l-4 -98 -89 0 c-83 0 -91 -2
-119 -27 -41 -37 -50 -94 -21 -141 27 -42 55 -52 152 -52 l79 0 0 -194 0 -194
-325 -487 -325 -487 0 -307 0 -308 -317 -289 c-174 -159 -394 -359 -487 -444
-275 -249 -306 -281 -306 -319 0 -73 43 -110 116 -98 l34 6 -2 -667 -3 -667
-522 -3 -523 -2 0 25 c0 17 32 65 94 144 l95 118 62 7 c156 18 292 87 398 202
106 115 161 259 161 419 0 112 -18 185 -72 295 -33 69 -57 100 -123 165 l-83
80 14 65 c69 329 -153 677 -486 761 -69 18 -103 21 -199 16 -182 -7 -289 -51
-406 -167 -101 -98 -152 -205 -162 -336 -5 -68 -7 -72 -40 -89 -49 -27 -158
-146 -189 -207 -41 -82 -55 -136 -61 -248 -6 -121 8 -195 59 -300 41 -86 159
-205 245 -249 54 -27 66 -38 89 -84 53 -104 260 -424 336 -517 17 -22 28 -46
28 -66 l0 -32 -162 -4 c-179 -6 -248 -21 -363 -81 -72 -38 -223 -183 -254
-244 -23 -46 -27 -103 -10 -135 6 -11 26 -26 46 -34 32 -14 38 -13 76 5 25 12
60 43 85 75 115 149 251 206 490 206 l102 0 0 -94 0 -95 -194 -3 -195 -3 -30
-29 c-26 -25 -31 -37 -31 -78 0 -39 5 -54 25 -73 l24 -25 491 0 492 0 29 29
c50 51 36 137 -28 170 -13 7 -85 11 -187 11 l-166 0 0 95 0 95 2787 -2 c2732
-3 2788 -3 2791 -22 2 -11 1 -52 -3 -93 l-7 -73 -166 0 c-189 0 -207 -5 -236
-64 -16 -32 -17 -44 -7 -77 22 -72 -1 -69 541 -69 538 0 518 -2 540 65 16 48
-2 100 -44 126 -28 17 -51 19 -213 19 l-183 0 0 95 0 95 93 0 c253 -1 347 -45
525 -242 37 -42 47 -48 82 -48 49 0 84 21 100 60 16 38 7 73 -36 138 -81 123
-211 220 -359 269 -67 22 -105 27 -240 32 -209 8 -206 -4 -60 202 108 152 254
383 272 428 12 30 27 43 81 71 102 52 203 157 251 262 50 106 65 184 58 296
-7 108 -35 190 -96 285 -47 71 -124 149 -168 170 -18 8 -23 19 -23 46 0 64
-28 170 -62 234 -47 91 -155 195 -248 240 -102 50 -177 67 -291 67 -196 0
-342 -61 -479 -200 -93 -94 -145 -183 -174 -296 -18 -70 -21 -245 -6 -312 l10
-43 -88 -87 c-132 -131 -185 -256 -186 -442 -1 -164 46 -289 158 -420 95 -112
293 -210 423 -210 35 0 42 -5 83 -57 25 -32 68 -86 97 -120 34 -39 53 -72 53
-88 l0 -25 -529 0 -528 0 -6 82 c-3 46 -4 346 -2 667 l2 585 50 -3 c45 -2 53
1 77 29 14 17 26 43 26 56 0 54 -18 74 -345 369 -189 171 -664 604 -722 659
l-53 49 0 306 0 306 -325 489 -325 489 0 188 0 187 96 4 c94 3 96 4 125 36 33
37 38 85 14 131 -19 38 -35 44 -140 51 l-90 5 -5 101 c-5 111 -13 128 -67 151
-41 17 -61 16 -98 -2z m318 -1488 c140 -210 259 -392 266 -404 11 -22 17 -343
6 -343 -3 0 -56 49 -118 108 -234 226 -373 352 -398 361 -20 7 -34 5 -55 -9
-27 -16 -265 -233 -431 -392 l-73 -69 0 166 c0 105 4 174 11 188 11 20 490
742 514 773 5 7 12 11 16 8 5 -2 122 -177 262 -387z m-140 -669 c67 -62 184
-172 262 -243 77 -72 329 -304 560 -514 231 -211 450 -413 488 -448 l67 -65 0
-754 0 -754 -456 2 -457 3 -3 285 c-3 319 -10 360 -81 490 -48 87 -159 196
-243 238 -160 80 -356 80 -520 0 -90 -44 -213 -169 -258 -261 -61 -127 -65
-154 -70 -469 l-4 -288 -453 0 c-404 0 -454 2 -459 16 -3 9 -6 346 -6 749 0
683 1 734 18 753 9 11 76 74 148 139 72 65 218 199 325 298 107 99 298 275
424 391 127 116 309 286 405 377 96 92 179 166 183 167 5 0 63 -51 130 -112z
m-2831 -741 c214 -105 318 -360 232 -566 -19 -45 -18 -106 2 -136 9 -14 47
-45 85 -70 184 -123 243 -331 150 -530 -46 -100 -125 -171 -220 -200 l-25 -8
28 34 c24 28 27 40 23 77 -6 52 -36 88 -87 103 -49 15 -73 2 -178 -98 l-82
-78 0 108 0 108 155 159 155 159 0 46 c0 40 -5 52 -34 81 -59 59 -111 46 -211
-56 l-60 -61 -5 330 c-5 329 -5 329 -28 354 -53 56 -121 56 -173 1 -24 -25
-24 -28 -27 -276 l-3 -250 -43 58 c-62 85 -81 99 -131 99 -56 0 -97 -30 -109
-79 -12 -47 1 -76 96 -203 40 -54 98 -136 130 -182 l58 -85 0 -198 c0 -109 -3
-198 -7 -198 -5 0 -18 15 -30 33 -12 17 -49 72 -82 121 -47 68 -61 97 -61 125
0 60 -19 83 -80 101 -147 44 -236 130 -276 266 -46 160 32 330 193 421 35 19
66 40 70 46 5 7 11 60 14 118 6 122 30 185 96 253 87 89 160 117 299 113 83
-3 99 -6 166 -40z m5740 24 c89 -28 191 -128 224 -221 9 -25 18 -85 21 -135 3
-49 10 -98 15 -108 5 -9 33 -31 61 -47 81 -46 130 -93 165 -159 60 -112 62
-232 7 -342 -48 -93 -157 -175 -257 -193 -52 -9 -68 -29 -68 -84 0 -43 -8 -59
-87 -177 l-88 -130 -3 208 -2 209 67 96 c37 53 97 138 134 187 36 50 72 101
79 114 26 50 -11 124 -70 142 -55 17 -103 -9 -162 -89 l-48 -63 0 236 c0 193
-3 243 -15 270 -41 85 -170 75 -202 -16 -8 -23 -12 -132 -12 -348 l-1 -314
-56 61 c-93 102 -145 122 -212 82 -39 -24 -56 -62 -47 -110 5 -27 39 -67 161
-191 l154 -157 0 -107 0 -107 -42 38 c-24 21 -62 56 -86 79 -59 55 -87 68
-125 59 -65 -14 -97 -53 -97 -119 0 -21 9 -44 26 -64 33 -39 17 -39 -58 1 -73
39 -131 102 -172 188 -29 60 -31 73 -31 170 0 99 2 109 34 174 39 81 104 150
178 190 52 29 83 71 83 115 0 11 -10 44 -22 73 -18 43 -22 73 -22 163 -1 103
1 114 31 178 56 119 183 227 299 256 48 12 196 7 246 -8z m-2884 -1236 c73
-40 155 -130 183 -202 21 -55 22 -74 23 -338 l1 -280 -358 -3 -358 -2 3 292 3
293 27 57 c14 31 45 77 68 102 81 87 154 117 275 113 66 -3 90 -8 133 -32z"/>
<path d="M5017 6356 c-217 -80 -282 -351 -124 -514 23 -24 65 -56 92 -70 43
-23 62 -27 136 -27 79 0 92 3 155 35 228 116 231 424 4 558 -37 22 -58 27
-135 29 -60 2 -103 -1 -128 -11z m175 -235 c65 -58 28 -152 -62 -155 -35 -1
-46 4 -71 32 -37 41 -38 80 -3 121 35 42 90 43 136 2z"/>
<path d="M4015 5418 c-54 -42 -55 -51 -55 -510 0 -259 4 -437 10 -460 16 -56
54 -81 114 -75 40 3 55 11 78 36 l28 31 0 466 0 466 -34 34 c-42 42 -97 47
-141 12z"/>
<path d="M6114 5421 c-17 -11 -36 -34 -43 -52 -18 -51 -15 -889 3 -933 18 -44
52 -66 101 -66 47 0 79 19 100 60 22 42 22 893 1 945 -26 60 -102 82 -162 46z"/>
<path d="M4120 8709 c-309 -78 -675 -220 -735 -285 -29 -31 -33 -80 -10 -124
35 -68 78 -66 246 11 192 87 468 176 697 225 72 15 98 120 43 175 -38 38 -86
38 -241 -2z"/>
<path d="M5905 8728 c-33 -19 -44 -41 -45 -88 0 -81 18 -94 185 -130 199 -44
428 -123 648 -224 100 -46 147 -48 188 -7 37 37 40 94 7 136 -40 52 -336 179
-574 248 -237 69 -366 89 -409 65z"/>
<path d="M7477 8389 c-157 -21 -266 -77 -388 -198 -64 -65 -95 -105 -123 -161
l-37 -75 -328 -5 c-283 -4 -330 -7 -352 -22 -56 -36 -62 -123 -13 -169 l26
-24 312 -3 313 -3 7 -70 c8 -90 55 -212 110 -286 56 -77 139 -150 184 -163 25
-8 223 -10 599 -8 l563 3 25 25 c53 53 49 136 -8 170 -25 16 -50 20 -119 20
l-87 0 23 53 c36 82 50 154 50 257 0 120 -14 181 -72 299 -123 254 -399 399
-685 360z m265 -257 c76 -34 162 -110 207 -181 88 -138 82 -330 -13 -475 l-38
-56 -316 0 c-356 0 -332 -4 -391 79 -142 200 -58 511 169 626 72 37 113 44
220 41 82 -2 104 -7 162 -34z"/>
<path d="M3348 7943 c-60 -9 -96 -93 -67 -156 25 -55 40 -57 376 -57 281 0
311 2 343 19 24 12 39 30 49 57 12 35 12 44 -3 76 -31 66 -46 68 -378 67 -161
-1 -305 -4 -320 -6z"/>
<path d="M2318 7865 c-182 -37 -341 -200 -364 -372 -8 -61 -9 -63 -59 -88 -70
-35 -83 -111 -30 -172 l23 -28 654 -3 c456 -2 664 0 691 8 25 7 45 22 57 43
24 39 25 59 4 103 -27 57 -52 64 -237 64 l-165 0 -12 65 c-14 75 -56 169 -100
223 -104 130 -290 193 -462 157z m197 -234 c69 -31 126 -103 141 -180 l7 -31
-248 0 -248 0 6 36 c14 87 89 164 185 190 53 15 99 10 157 -15z"/>
<path d="M1845 6796 c-58 -25 -74 -112 -29 -165 l26 -31 140 0 140 0 29 29
c49 50 36 136 -26 166 -42 19 -236 20 -280 1z"/>
<path d="M2414 6800 c-50 -20 -69 -101 -39 -161 26 -49 100 -65 156 -32 96 57
57 204 -55 202 -22 0 -50 -4 -62 -9z"/>
<path d="M7378 6794 c-35 -19 -48 -43 -48 -93 0 -28 8 -48 26 -70 l26 -31 503
0 c488 0 503 1 528 20 38 30 52 80 33 123 -28 68 -20 67 -558 67 -407 -1 -487
-3 -510 -16z"/>
<path d="M3614 6650 c-38 -15 -64 -59 -64 -106 0 -122 158 -153 215 -43 46 88
-55 188 -151 149z"/>
<path d="M6528 6644 c-76 -41 -74 -159 3 -200 71 -36 169 21 169 99 0 88 -94
144 -172 101z"/>
<path d="M6922 6640 c-39 -24 -55 -62 -49 -113 13 -96 119 -125 194 -55 51 48
33 146 -31 173 -47 20 -75 19 -114 -5z"/>
<path d="M2899 6621 c-24 -24 -29 -38 -29 -76 0 -38 5 -52 29 -76 l29 -29 182
0 c114 0 189 4 203 11 38 19 57 51 57 97 0 35 -6 49 -29 73 l-29 29 -192 0
-192 0 -29 -29z"/>
<path d="M1454 4528 c-96 -25 -112 -167 -24 -213 37 -19 73 -19 110 0 40 21
60 53 60 98 0 85 -65 137 -146 115z"/>
<path d="M8739 4526 c-61 -20 -94 -96 -69 -160 25 -68 134 -85 190 -31 91 87
0 230 -121 191z"/>
<path d="M4420 3586 c-89 -25 -105 -45 -98 -116 2 -22 12 -40 30 -53 25 -19
32 -19 79 -9 116 27 243 7 476 -76 218 -78 539 -226 709 -328 100 -59 151 -68
188 -31 29 30 33 64 11 107 -16 31 -114 94 -272 175 -51 26 -93 53 -93 59 0 7
17 31 38 53 45 49 93 65 173 56 52 -5 59 -3 83 20 45 45 32 113 -26 143 -50
26 -197 16 -269 -19 -52 -25 -145 -106 -176 -154 l-14 -21 -102 44 c-114 50
-262 102 -382 134 -100 27 -289 36 -355 16z"/>
<path d="M6205 3581 c-54 -23 -56 -31 -165 -701 -16 -96 -49 -289 -74 -427
-50 -277 -54 -327 -28 -360 35 -47 127 -46 157 1 15 22 56 238 110 574 12 79
25 145 28 148 3 3 66 -11 140 -30 150 -40 200 -44 252 -19 40 19 39 19 59 -29
15 -36 15 -37 -17 -85 -61 -89 -177 -281 -192 -317 -13 -31 -13 -41 -1 -69 12
-31 64 -67 95 -67 7 0 11 -44 11 -135 0 -152 9 -184 59 -205 41 -16 85 -5 116
32 23 27 25 37 25 129 0 69 4 99 12 99 6 0 50 -5 98 -11 59 -8 106 -8 150 -1
l65 10 50 -38 c28 -21 88 -62 135 -91 68 -43 94 -53 128 -54 37 0 48 5 73 33
61 68 30 132 -96 198 l-59 32 66 30 c79 36 107 70 91 111 -9 25 -120 190 -215
318 -37 50 -44 79 -30 115 6 15 12 14 56 -10 39 -21 62 -46 111 -117 74 -109
114 -136 173 -113 45 17 76 65 66 103 -4 15 -42 81 -85 146 l-79 119 -145 71
c-189 91 -305 129 -394 129 -90 0 -146 -18 -274 -90 -60 -33 -117 -60 -127
-60 -21 0 -269 65 -276 73 -4 4 40 283 65 415 14 71 -4 117 -53 137 -39 17
-52 17 -81 6z m817 -693 c22 -6 42 -17 45 -23 2 -7 -5 -47 -16 -89 -19 -73
-19 -79 -4 -119 9 -23 52 -95 95 -160 44 -65 81 -124 84 -131 7 -17 -68 -40
-176 -55 -75 -10 -164 -4 -278 20 l-53 11 32 56 c119 210 149 270 149 295 0
16 -12 62 -26 104 -14 41 -24 76 -22 77 40 27 109 32 170 14z"/>
<path d="M3465 3567 c-57 -23 -74 -38 -101 -83 -53 -90 -27 -216 55 -271 101
-68 226 -44 297 59 24 34 29 51 29 102 0 119 -73 198 -188 203 -34 1 -75 -3
-92 -10z"/>
<path d="M6853 3567 c-73 -27 -133 -113 -133 -192 0 -115 111 -215 223 -201
94 11 173 81 192 172 15 76 -47 188 -122 219 -42 18 -115 18 -160 2z"/>
<path d="M4570 3221 c-74 -24 -162 -87 -185 -132 -22 -42 -18 -67 15 -101 26
-25 36 -29 63 -24 17 4 48 19 67 35 55 44 75 51 141 51 109 0 371 -107 462
-188 45 -41 47 -66 12 -140 -47 -101 -21 -182 57 -182 44 0 71 20 90 67 81
192 88 246 45 312 -38 57 -122 120 -247 185 -158 82 -272 118 -395 122 -55 2
-111 0 -125 -5z"/>
<path d="M3510 3109 c-140 -26 -207 -59 -238 -119 -29 -56 -27 -78 28 -313
l42 -176 -33 -62 -33 -61 -61 6 c-33 3 -103 9 -155 12 -94 6 -95 6 -128 -23
-25 -21 -33 -37 -34 -63 -3 -97 16 -107 256 -127 241 -20 234 -22 320 120 l58
98 47 -6 c95 -12 107 -16 146 -53 l40 -37 5 -188 5 -189 33 -29 c45 -40 98
-40 141 0 l31 29 0 236 0 236 -41 45 c-22 24 -63 61 -90 82 -55 42 -52 27 -33
153 l6 40 164 0 c180 0 210 7 232 55 17 36 15 66 -5 95 -32 47 -41 49 -188 50
l-140 0 -20 36 c-28 53 -138 151 -182 163 -47 13 -45 13 -173 -10z m127 -216
c4 -9 1 -57 -6 -107 -6 -50 -15 -110 -18 -134 l-5 -43 -41 3 -41 3 -32 140
c-18 77 -29 143 -26 147 4 4 34 11 67 15 63 10 92 3 102 -24z"/>
<path d="M1692 3107 c-50 -28 -72 -107 -43 -160 42 -78 167 -73 206 9 19 41
19 58 -1 100 -27 57 -106 82 -162 51z"/>
<path d="M2153 3099 c-59 -37 -65 -137 -13 -184 11 -10 41 -20 68 -23 41 -4
52 0 80 23 58 49 59 126 2 178 -37 33 -91 36 -137 6z"/>
<path d="M2623 3101 c-36 -23 -60 -83 -49 -126 11 -45 59 -85 101 -85 75 0
125 47 125 117 0 89 -100 142 -177 94z"/>
<path d="M7994 3110 c-38 -15 -64 -59 -64 -107 0 -38 5 -50 34 -79 46 -46 100
-48 150 -3 101 88 4 239 -120 189z"/>
<path d="M8450 3104 c-40 -29 -49 -46 -50 -92 0 -56 21 -96 60 -112 65 -27
151 16 164 81 7 35 -12 86 -42 113 -30 27 -101 32 -132 10z"/>
<path d="M4718 2804 c-83 -20 -167 -65 -233 -126 -119 -108 -143 -172 -86
-229 50 -50 88 -36 184 67 26 28 75 66 110 85 53 28 74 34 150 37 79 4 89 7
107 30 39 48 17 112 -46 138 -41 17 -111 17 -186 -2z"/>
<path d="M2834 2781 c-36 -22 -49 -65 -33 -111 31 -88 169 -56 169 40 0 69
-76 109 -136 71z"/>
<path d="M1693 2333 c-42 -14 -113 -83 -113 -108 0 -8 -16 -11 -50 -7 -38 3
-57 0 -85 -16 -29 -18 -39 -20 -60 -10 -36 16 -79 -16 -83 -63 -14 -131 101
-342 253 -466 105 -85 265 -151 420 -173 58 -8 945 -10 3205 -8 l3125 3 84 23
c233 63 407 191 500 372 57 110 88 249 63 286 -16 24 -50 34 -76 23 -20 -10
-28 -9 -41 5 -22 22 -58 29 -111 23 -35 -4 -44 -1 -44 11 0 42 -122 122 -186
122 -74 0 -154 -56 -176 -121 -11 -34 -21 -43 -52 -54 -45 -16 -94 -60 -102
-92 -6 -22 -7 -22 -47 12 -52 45 -133 85 -170 85 -90 0 -170 -63 -182 -142 -6
-42 -9 -45 -51 -57 -100 -30 -154 -165 -98 -246 8 -11 14 -23 14 -27 0 -5
-416 -8 -925 -8 l-925 0 0 26 c0 48 -23 104 -57 139 -19 19 -40 35 -46 35 -7
0 -18 21 -25 46 -7 26 -22 60 -33 75 -25 35 -92 75 -139 84 -30 5 -40 15 -68
66 -77 138 -225 197 -379 151 -86 -27 -147 -77 -191 -160 -31 -57 -34 -60 -77
-64 -84 -10 -164 -89 -165 -164 0 -14 -15 -31 -43 -49 -53 -33 -77 -70 -86
-133 l-6 -47 -918 -3 c-504 -1 -917 -1 -917 1 0 1 9 20 20 42 51 101 -6 220
-116 241 -28 5 -32 11 -37 45 -12 90 -94 156 -182 147 -55 -7 -126 -41 -170
-82 l-34 -32 -12 29 c-15 35 -83 87 -115 87 -17 0 -25 9 -34 35 -25 76 -105
135 -180 134 -19 0 -54 -7 -77 -16z m3482 -215 c14 -6 35 -27 47 -46 21 -35
21 -36 2 -46 -10 -6 -37 -29 -59 -51 l-40 -40 -45 46 c-25 26 -52 48 -59 51
-12 3 -11 11 7 40 34 54 90 72 147 46z m-3393 -43 c11 -42 14 -45 46 -45 39 0
82 -38 82 -72 0 -13 -14 -43 -30 -67 -31 -46 -37 -82 -20 -125 5 -14 7 -26 4
-26 -21 0 -151 79 -197 121 -48 43 -97 104 -97 122 0 18 36 37 71 37 37 0 41
3 56 38 20 49 32 62 54 62 14 0 22 -12 31 -45z m6770 -5 c22 -48 25 -50 62
-50 39 0 76 -22 76 -45 0 -25 -72 -106 -133 -148 -100 -71 -203 -117 -156 -70
24 24 15 89 -19 136 -17 25 -32 55 -32 67 0 33 44 70 82 70 32 0 35 3 46 45
17 63 43 62 74 -5z m-6234 -165 c17 -35 27 -45 45 -45 28 0 77 -42 77 -65 0
-9 -9 -34 -20 -55 l-20 -40 -135 0 c-129 0 -135 1 -150 23 -8 13 -18 37 -21
54 -9 45 30 83 85 83 36 0 41 4 65 45 15 25 33 45 39 45 7 0 23 -20 35 -45z
m5675 30 c8 -8 21 -28 29 -45 11 -26 18 -30 54 -30 51 0 94 -31 94 -66 0 -14
-7 -40 -15 -60 l-14 -35 -136 3 -136 3 -27 48 -27 48 33 30 c18 16 41 29 52
29 14 0 27 14 42 45 24 49 29 52 51 30z m-3095 -75 c12 -11 26 -38 32 -60 7
-24 22 -47 40 -60 17 -12 30 -26 30 -31 0 -5 -66 -9 -155 -9 -89 0 -155 4
-155 9 0 14 27 39 49 46 12 4 21 19 25 45 3 22 15 49 26 60 26 26 80 26 108 0z
m553 7 c22 -17 39 -51 39 -80 0 -15 9 -28 26 -37 14 -8 30 -22 35 -32 9 -17 1
-18 -146 -18 -132 0 -155 2 -155 15 0 9 15 23 34 32 27 13 35 23 40 54 10 63
82 101 127 66z"/>
<path d="M2933 2038 c-68 -18 -87 -106 -34 -159 41 -41 83 -39 127 5 42 42 45
82 9 124 -28 34 -56 42 -102 30z"/>
</g>
</svg>
