<?xml version="1.0" standalone="no"?>
<!DOCTYPE svg PUBLIC "-//W3C//DTD SVG 20010904//EN"
 "http://www.w3.org/TR/2001/REC-SVG-20010904/DTD/svg10.dtd">
<svg version="1.0" xmlns="http://www.w3.org/2000/svg"
 width="1024.000000pt" height="1024.000000pt" viewBox="0 0 1024.000000 1024.000000"
 preserveAspectRatio="xMidYMid meet">

<g transform="translate(0.000000,1024.000000) scale(0.100000,-0.100000)"
fill="#000000" stroke="none">
<path d="M5053 9196 c-27 -23 -28 -30 -33 -128 l-5 -103 -101 -3 c-95 -2 -104
-5 -128 -29 -38 -38 -37 -104 3 -144 29 -28 32 -29 130 -29 l101 0 0 -148 0
-148 -75 -63 c-108 -91 -270 -268 -485 -531 -30 -37 -109 -132 -176 -211 -153
-182 -208 -258 -249 -339 -67 -134 -66 -109 -68 -1039 -2 -834 -2 -841 -23
-861 -32 -33 -83 -36 -124 -8 -46 31 -58 77 -40 152 30 126 -11 375 -89 542
-95 201 -265 381 -529 559 -24 16 -48 37 -53 48 -6 11 -9 73 -7 150 l3 132 92
2 c104 2 126 10 149 55 22 42 11 90 -27 122 -28 24 -38 26 -125 26 l-94 0 0
111 c0 109 0 111 -29 140 -34 33 -75 38 -121 14 -43 -22 -50 -43 -50 -158 l0
-105 -104 -4 c-94 -3 -108 -6 -130 -27 -37 -34 -37 -107 -1 -143 29 -29 86
-41 145 -32 21 4 50 4 63 0 24 -6 24 -7 26 -144 2 -158 11 -141 -109 -219
-223 -146 -396 -332 -491 -528 -97 -199 -93 -152 -97 -1022 l-3 -762 -102
-118 c-224 -261 -289 -336 -457 -528 -96 -110 -203 -231 -238 -268 -53 -59
-62 -74 -62 -106 0 -27 7 -44 26 -62 22 -21 38 -25 117 -29 l92 -5 3 -855 c1
-470 0 -865 -3 -877 -5 -22 -11 -23 -89 -23 -46 0 -97 -5 -114 -11 -80 -28
-84 -147 -7 -184 30 -13 414 -15 3737 -15 2036 0 3720 3 3740 6 53 9 88 47 88
96 0 81 -43 108 -176 108 l-84 0 0 880 0 880 91 0 c87 0 92 1 120 29 21 21 29
39 29 64 0 29 -16 51 -112 158 -153 169 -699 793 -738 843 -13 16 -16 128 -20
790 l-5 771 -28 90 c-80 256 -233 453 -497 638 -69 48 -133 95 -142 102 -16
13 -18 34 -18 154 0 161 -8 151 121 151 61 0 81 4 102 20 49 39 52 114 6 156
-17 16 -40 20 -125 22 l-104 4 0 100 c0 54 -5 109 -11 121 -30 59 -106 76
-154 34 -31 -27 -44 -79 -45 -184 l0 -73 -80 0 c-126 0 -170 -27 -170 -104 0
-25 9 -45 29 -68 28 -31 31 -32 112 -34 46 0 90 -1 97 -2 9 -2 12 -38 12 -147
l0 -144 -62 -42 c-285 -192 -474 -406 -558 -632 -52 -138 -80 -357 -60 -460
22 -111 0 -157 -82 -172 -28 -5 -40 -2 -66 20 l-32 27 0 821 c0 877 0 878 -50
1010 -34 89 -118 207 -343 480 -330 398 -450 532 -604 669 l-53 47 0 145 0
144 106 4 c102 3 107 4 130 31 35 41 33 99 -5 138 -29 28 -32 29 -130 29
l-101 0 0 84 c0 45 -5 96 -10 113 -22 61 -115 83 -167 39z m232 -1078 c130
-132 243 -263 565 -653 68 -82 100 -126 100 -135 0 -3 -373 -5 -830 -5 -456 0
-830 2 -830 4 0 10 79 107 358 440 227 271 445 501 474 501 7 0 80 -69 163
-152z m775 -1017 c7 -14 9 -267 8 -780 l-3 -760 -175 105 c-96 58 -192 116
-212 130 l-37 24 -3 449 -3 449 -24 26 c-31 33 -70 41 -115 22 -67 -28 -67
-27 -64 -571 3 -469 4 -485 23 -503 11 -11 85 -58 165 -104 227 -133 654 -396
772 -475 165 -111 263 -252 313 -445 26 -103 42 -218 31 -218 -10 0 -190 111
-393 241 -89 57 -271 173 -405 258 -134 85 -306 195 -383 245 -286 184 -409
256 -435 256 -29 0 -104 -43 -370 -215 -764 -492 -1227 -785 -1240 -785 -3 0
-5 15 -3 33 22 193 63 316 144 434 66 96 143 157 391 313 134 84 254 160 268
170 15 10 48 30 75 44 28 15 73 41 101 59 27 18 105 65 172 105 67 40 129 80
137 88 13 13 15 84 15 516 l0 500 -35 35 c-32 32 -39 35 -78 30 -28 -4 -49
-14 -64 -32 l-23 -26 0 -443 c0 -339 -3 -446 -12 -457 -7 -9 -44 -34 -83 -57
-38 -23 -128 -77 -200 -120 -71 -44 -133 -77 -138 -75 -10 6 -4 1514 7 1536 8
16 62 17 937 17 909 0 929 0 939 -19z m-2920 -685 c97 -66 234 -202 292 -291
26 -39 59 -104 76 -145 31 -81 57 -194 47 -210 -4 -6 -208 -10 -567 -10 l-561
0 6 53 c21 210 203 461 452 625 l108 72 36 -22 c20 -12 70 -44 111 -72z m4240
3 c132 -89 251 -203 318 -304 54 -81 109 -219 118 -299 l7 -56 -567 0 -566 0
0 28 c0 49 38 181 71 245 78 154 207 293 373 402 61 40 115 71 121 67 5 -3 62
-40 125 -83z m-3820 -924 l0 -75 -569 0 c-636 0 -581 -7 -581 75 0 82 -55 75
581 75 l569 0 0 -75z m4268 -3 l3 -72 -573 2 -573 3 -3 49 c-2 27 -1 60 3 73
l5 23 568 -2 567 -3 3 -73z m-4796 -272 c643 0 600 10 494 -117 -109 -129
-188 -308 -215 -488 -31 -198 -35 -340 -40 -1517 -4 -829 -9 -1210 -17 -1218
-16 -16 -809 -17 -829 0 -13 11 -15 180 -15 1476 0 1316 2 1464 16 1478 13 14
66 16 425 16 l410 0 24 25 c35 34 34 93 -1 126 l-26 24 -421 5 -422 5 -3 85
c-2 72 0 87 15 98 10 7 27 11 38 8 11 -3 266 -6 567 -6z m4793 -1 c7 -7 9 -60
7 -136 l-2 -53 -404 0 c-260 0 -414 -4 -434 -11 -19 -6 -36 -23 -46 -44 -22
-45 -20 -58 10 -94 l26 -31 412 0 c307 0 415 -3 424 -12 9 -9 12 -353 12
-1484 0 -810 -4 -1475 -8 -1478 -16 -10 -823 -9 -832 0 -7 7 -10 408 -10 1140
0 1047 -1 1146 -20 1358 -20 234 -40 343 -83 457 -50 133 -79 180 -197 321
-30 36 -30 38 -13 55 17 17 52 18 585 18 312 0 570 -3 573 -6z m-2605 -60 c51
-33 120 -78 154 -98 34 -21 171 -108 306 -193 135 -85 391 -248 570 -361 179
-113 369 -233 423 -268 l97 -62 -2 -1151 -3 -1151 -460 -3 c-424 -2 -461 -1
-472 15 -10 13 -13 172 -13 714 0 443 -4 726 -11 775 -13 92 -44 183 -90 261
-43 73 -168 198 -241 241 -221 131 -514 125 -723 -14 -139 -92 -243 -223 -293
-369 l-27 -80 -5 -760 c-3 -418 -9 -766 -13 -772 -6 -10 -111 -13 -468 -13
l-459 0 -10 25 c-11 29 -12 2169 -1 2245 l6 45 225 142 c124 79 261 166 305
194 44 28 307 196 585 374 278 178 510 324 516 325 7 0 53 -27 104 -61z
m-3031 -1735 c-9 -11 -59 -14 -245 -14 -136 0 -234 4 -234 9 0 5 12 24 27 43
36 43 407 480 436 512 l22 25 3 -281 c2 -199 -1 -285 -9 -294z m6159 226 c106
-124 192 -228 192 -232 0 -5 -108 -8 -240 -8 -226 0 -240 1 -250 19 -6 12 -10
125 -10 298 l0 278 59 -65 c32 -36 144 -166 249 -290z m-3084 95 c144 -44 274
-173 324 -323 l27 -77 3 -717 c2 -506 0 -723 -8 -738 -10 -19 -20 -20 -183
-20 -121 0 -177 4 -185 12 -9 9 -12 183 -12 721 0 772 1 760 -56 786 -55 25
-115 6 -139 -44 -13 -29 -15 -123 -15 -748 0 -616 -2 -716 -15 -720 -7 -3 -89
-7 -181 -8 -153 -1 -169 0 -181 17 -12 16 -13 141 -11 744 3 670 5 729 22 780
55 165 159 274 314 327 81 27 220 31 296 8z m-3066 -1205 l2 -666 -70 -33
c-76 -36 -126 -84 -161 -153 -17 -33 -23 -67 -27 -140 l-5 -98 -72 0 c-57 0
-74 3 -79 16 -8 21 -8 1708 0 1728 6 14 31 16 208 14 l201 -3 3 -665z m6262
-210 l0 -880 -80 0 -80 0 0 85 c0 151 -58 245 -193 310 l-62 30 -3 655 c-1
360 0 661 3 668 3 9 55 12 210 12 l205 0 0 -880z m-5679 -670 l399 0 0 -92 c0
-51 -4 -99 -9 -106 -6 -11 -105 -13 -511 -12 -277 0 -506 3 -509 6 -3 2 -5 34
-5 69 0 58 3 68 29 95 37 39 76 51 149 45 32 -3 238 -5 457 -5z m5264 -16 c47
-31 67 -102 49 -171 l-6 -23 -508 0 -508 0 -6 23 c-8 32 -7 160 2 174 6 10
105 14 413 16 496 4 530 3 564 -19z m-1190 -86 c0 -53 -2 -99 -5 -102 -10 -10
-78 -10 -1772 -8 l-1687 2 -3 33 c-2 17 -2 65 0 105 l4 72 1731 -2 1732 -3 0
-97z"/>
<path d="M5069 6815 c-49 -27 -50 -37 -47 -554 l3 -483 24 -19 c48 -39 99 -37
148 5 l28 24 3 464 c2 318 0 475 -8 501 -19 64 -92 94 -151 62z"/>
<path d="M2825 4526 c-17 -7 -36 -25 -43 -40 -16 -35 -17 -349 -1 -378 14 -27
74 -51 109 -43 16 3 40 18 54 32 26 26 26 26 26 199 l0 174 -27 30 c-33 35
-76 45 -118 26z"/>
<path d="M2834 3706 c-68 -30 -64 20 -64 -821 0 -842 -4 -792 65 -815 26 -9
44 -9 70 0 69 23 65 -27 65 815 0 844 4 792 -66 821 -39 16 -32 16 -70 0z"/>
<path d="M7333 4526 c-17 -8 -36 -23 -42 -35 -7 -12 -11 -88 -11 -193 0 -194
4 -208 65 -228 30 -10 41 -9 72 7 21 10 43 29 50 43 15 30 18 316 3 354 -18
49 -85 74 -137 52z"/>
<path d="M7305 3684 l-25 -27 0 -772 0 -772 26 -24 c20 -19 36 -24 72 -23 38
1 50 6 74 33 l28 32 -2 765 -3 766 -28 24 c-41 35 -109 34 -142 -2z"/>
<path d="M5045 4796 c-140 -44 -213 -151 -203 -297 6 -83 39 -143 105 -194
114 -87 257 -81 367 15 90 79 119 220 66 324 -64 126 -209 192 -335 152z m134
-212 c24 -20 31 -34 31 -60 0 -78 -97 -114 -154 -58 -80 81 35 192 123 118z"/>
<path d="M3913 3856 c-17 -8 -36 -23 -42 -35 -8 -13 -11 -277 -11 -858 0 -928
-4 -870 65 -893 26 -9 44 -9 70 0 68 22 65 -21 65 899 l0 831 -27 30 c-33 36
-76 45 -120 26z"/>
<path d="M6255 3861 c-11 -5 -29 -19 -40 -31 -20 -22 -20 -38 -23 -851 -3
-932 -6 -888 67 -910 32 -9 46 -9 71 1 64 26 60 -27 60 893 0 556 -3 845 -10
858 -12 22 -61 49 -87 48 -10 0 -27 -4 -38 -8z"/>
</g>
</svg>
