<svg xmlns="http://www.w3.org/2000/svg" enable-background="new 0 0 512 512" viewBox="0 0 512 540" id="bell"><path d="M256 512c33.387 0 61.387-23.307 68.587-54.453H187.413C194.613 488.693 222.613 512 256 512zM456.64 405.867H55.36c-11.306 0-20.48 9.226-20.48 20.48 0 11.307 9.173 20.533 20.48 20.533h401.28c11.306 0 20.481-9.226 20.481-20.533C477.121 415.094 467.947 405.867 456.64 405.867zM270.396 174.433v-34.125h-28.792v34.125c0 2.946-2.388 5.333-5.333 5.333h-53.856v28.792h53.856c2.946 0 5.333 2.388 5.333 5.333v132.776h28.792V213.89c0-2.946 2.388-5.333 5.333-5.333h53.856v-28.792h-53.856C272.783 179.766 270.396 177.377 270.396 174.433z"></path><path d="M419.52,328.374v-94.454c0-43.679-17.014-84.692-47.947-115.573c-24.879-24.922-56.342-40.791-90.472-46.023c9.388-7.432,15.443-18.901,15.443-31.779C296.544,18.188,278.357,0,256,0s-40.544,18.188-40.544,40.544c0,12.88,6.056,24.352,15.45,31.784C152.642,84.44,92.534,152.27,92.534,233.919v94.402c0,24.64-8.64,48.266-24.213,66.88h375.307C428.16,376.534,419.52,352.959,419.52,328.374z M226.122,40.544c0-16.474,13.403-29.877,29.877-29.877s29.877,13.403,29.877,29.877c0,16.375-13.246,29.702-29.583,29.862c-0.098,0-0.196-0.006-0.295-0.006c-0.097,0-0.194,0.006-0.291,0.008C239.37,70.249,226.122,56.919,226.122,40.544z M340.252,211.224c0,4.412-3.589,8-8,8h-51.19v130.11c0,4.412-3.589,8-8,8h-34.125c-4.412,0-8-3.589-8-8v-130.11h-51.19c-4.412,0-8-3.589-8-8v-34.125c0-4.412,3.589-8,8-8h51.19v-31.458c0-4.412,3.589-8,8-8h34.125c4.412,0,8,3.589,8,8v31.458h51.19c4.412,0,8,3.589,8,8V211.224z"></path></svg>