<svg width="65" height="69" viewBox="0 0 65 73" fill="none" xmlns="http://www.w3.org/2000/svg">
<path d="M58.0939 22.0925L61.7907 18.8276C62.5557 18.1445 62.9855 17.218 62.9855 16.252C62.9855 15.2859 62.5557 14.3594 61.7907 13.6763C61.0257 12.9932 59.9882 12.6094 58.9064 12.6094C57.8245 12.6094 56.787 12.9932 56.022 13.6763L52.3657 16.9775C46.6724 13.0446 39.6779 10.9107 32.4798 10.9107C25.2817 10.9107 18.2872 13.0446 12.5939 16.9775L8.89698 13.64C8.12661 12.9569 7.0839 12.5751 5.99824 12.5785C4.91258 12.5819 3.8729 12.9703 3.10792 13.6582C2.34293 14.3461 1.91531 15.2772 1.91912 16.2466C1.92293 17.2161 2.35786 18.1445 3.12823 18.8276L6.86573 22.1288C2.40923 27.1986 -0.0088691 33.4592 0.000106555 39.9043C-0.0131603 44.5312 1.21261 49.0937 3.5752 53.2116C5.93779 57.3294 9.36871 60.8832 13.5818 63.5765C17.7949 66.2697 22.6681 68.0244 27.795 68.6943C32.9218 69.3641 38.1537 68.9296 43.0543 67.4271C47.9549 65.9245 52.3821 63.3974 55.9668 60.0566C59.5515 56.7158 62.1897 52.658 63.6614 48.2218C65.1331 43.7855 65.3957 39.0993 64.4272 34.5541C63.4587 30.0088 61.2872 25.7361 58.0939 22.0925ZM32.5001 61.6703C27.6792 61.6703 22.9665 60.3938 18.9581 58.0021C14.9496 55.6104 11.8254 52.2111 9.98054 48.2338C8.13566 44.2566 7.65295 39.8802 8.59346 35.658C9.53398 31.4358 11.8555 27.5575 15.2644 24.5135C18.6733 21.4694 23.0165 19.3964 27.7448 18.5566C32.4731 17.7167 37.3741 18.1478 41.828 19.7952C46.282 21.4426 50.0888 24.2324 52.7672 27.8118C55.4455 31.3912 56.8751 35.5994 56.8751 39.9043C56.8751 45.677 54.307 51.2133 49.7358 55.2952C45.1646 59.3772 38.9648 61.6703 32.5001 61.6703ZM24.3751 7.25534H40.6251C41.7025 7.25534 42.7359 6.87314 43.4977 6.19282C44.2596 5.5125 44.6876 4.58979 44.6876 3.62767C44.6876 2.66555 44.2596 1.74284 43.4977 1.06252C42.7359 0.382199 41.7025 0 40.6251 0H24.3751C23.2977 0 22.2644 0.382199 21.5025 1.06252C20.7406 1.74284 20.3126 2.66555 20.3126 3.62767C20.3126 4.58979 20.7406 5.5125 21.5025 6.19282C22.2644 6.87314 23.2977 7.25534 24.3751 7.25534ZM36.5626 29.0213C36.5626 28.0592 36.1346 27.1365 35.3727 26.4562C34.6109 25.7759 33.5775 25.3937 32.5001 25.3937C31.4227 25.3937 30.3894 25.7759 29.6275 26.4562C28.8656 27.1365 28.4376 28.0592 28.4376 29.0213V35.8776C27.5177 36.6123 26.8694 37.5791 26.5783 38.6501C26.2872 39.721 26.3671 40.8456 26.8075 41.8751C27.2479 42.9046 28.0279 43.7905 29.0444 44.4154C30.0609 45.0404 31.266 45.375 32.5001 45.375C33.7342 45.375 34.9393 45.0404 35.9558 44.4154C36.9723 43.7905 37.7524 42.9046 38.1927 41.8751C38.6331 40.8456 38.713 39.721 38.4219 38.6501C38.1309 37.5791 37.4825 36.6123 36.5626 35.8776V29.0213Z" fill="#003049"/>
</svg>
