<?xml version="1.0" standalone="no"?>
<!DOCTYPE svg PUBLIC "-//W3C//DTD SVG 20010904//EN"
 "http://www.w3.org/TR/2001/REC-SVG-20010904/DTD/svg10.dtd">
<svg version="1.0" xmlns="http://www.w3.org/2000/svg"
 width="1024.000000pt" height="1024.000000pt" viewBox="0 0 1024.000000 1024.000000"
 preserveAspectRatio="xMidYMid meet">

<g transform="translate(0.000000,1024.000000) scale(0.100000,-0.100000)"
fill="#000000" stroke="none">
<path d="M4780 9373 c-1162 -87 -2180 -579 -2923 -1413 -547 -614 -885 -1325
-1017 -2140 -33 -205 -46 -518 -32 -786 7 -126 19 -276 28 -334 32 -221 117
-570 174 -722 l21 -58 47 0 47 0 35 108 35 108 -32 106 c-156 520 -181 1170
-67 1732 154 759 522 1436 1083 1994 338 336 651 561 1056 762 233 115 332
156 510 213 453 146 860 210 1335 210 681 0 1296 -149 1898 -458 404 -208 684
-415 1028 -759 604 -605 978 -1350 1100 -2193 21 -147 30 -681 15 -852 -23
-240 -64 -446 -132 -661 l-30 -95 34 -105 35 -105 50 -3 c49 -3 50 -3 65 35
57 145 149 531 181 759 208 1502 -485 3024 -1779 3906 -612 417 -1319 672
-2064 742 -149 15 -561 20 -701 9z"/>
<path d="M5041 8819 c-13 -5 -76 -58 -140 -117 -64 -60 -244 -225 -401 -367
-157 -143 -361 -329 -455 -415 -93 -86 -412 -377 -707 -648 -348 -319 -540
-501 -544 -517 -10 -39 4 -93 29 -110 33 -23 97 -19 139 10 20 14 38 25 40 25
2 0 3 -360 2 -801 l-1 -800 30 -37 c27 -34 44 -66 92 -179 21 -49 51 -57 85
-23 20 20 20 33 20 1024 l0 1004 93 84 c295 269 1592 1457 1693 1551 28 26 54
47 58 47 7 0 920 -826 1056 -956 36 -34 95 -88 131 -120 36 -33 165 -149 285
-259 121 -110 257 -233 302 -274 l82 -74 2 -1011 3 -1010 27 -16 c39 -22 56
-7 89 78 28 74 78 162 92 162 4 0 7 362 7 805 l0 804 38 -25 c85 -59 195 -2
178 92 -7 34 -48 74 -441 429 -111 100 -571 521 -1110 1015 -159 146 -339 310
-400 365 -60 55 -146 133 -190 174 -70 65 -127 102 -152 100 -4 0 -19 -5 -32
-10z"/>
<path d="M3185 8256 c-50 -22 -70 -52 -70 -106 0 -40 5 -54 29 -79 25 -26 37
-31 79 -31 42 0 54 5 83 34 37 37 45 82 22 130 -22 50 -92 75 -143 52z"/>
<path d="M6883 8255 c-71 -31 -89 -130 -34 -186 24 -24 38 -29 76 -29 40 0 52
5 81 34 28 28 34 42 34 75 0 49 -22 86 -61 107 -34 17 -55 17 -96 -1z"/>
<path d="M4955 7904 c-144 -32 -301 -129 -390 -242 -55 -69 -119 -196 -139
-275 -21 -83 -31 -263 -17 -314 15 -55 51 -83 107 -83 58 0 92 30 102 90 6 34
12 45 25 44 9 0 87 -1 172 -2 l155 -2 0 -431 c0 -483 1 -488 68 -516 44 -18
82 -9 118 28 l29 30 3 445 3 444 169 0 c159 0 170 -1 170 -19 0 -66 46 -111
116 -111 28 0 44 8 71 35 l35 35 -4 148 c-4 122 -10 160 -31 225 -61 186 -186
331 -363 420 -113 57 -278 78 -399 51z m15 -389 l0 -165 -165 0 c-91 0 -165 2
-165 4 0 2 7 21 16 42 25 61 90 149 137 188 41 34 150 96 168 96 5 0 9 -74 9
-165z m335 110 c77 -45 183 -175 200 -247 l7 -28 -161 0 -161 0 0 165 0 165
38 -15 c20 -9 55 -27 77 -40z"/>
<path d="M2341 7784 c-30 -21 -51 -73 -51 -125 0 -36 -6 -48 -43 -84 -39 -39
-48 -43 -110 -50 -79 -9 -113 -31 -123 -80 -15 -83 17 -122 111 -136 112 -16
154 -54 166 -152 9 -73 29 -103 78 -118 75 -22 141 34 141 121 0 83 50 135
141 145 75 9 102 21 122 54 44 75 1 154 -89 166 -85 11 -97 15 -136 54 -35 36
-38 43 -38 96 0 52 -3 60 -34 91 -27 27 -42 34 -73 34 -21 0 -49 -7 -62 -16z
m108 -330 c12 -15 21 -33 21 -41 0 -21 -46 -63 -68 -63 -31 0 -64 33 -64 63 0
64 73 90 111 41z"/>
<path d="M7687 7776 c-27 -25 -32 -38 -42 -118 -10 -81 -56 -120 -155 -133
-69 -9 -107 -31 -120 -68 -14 -40 -13 -53 6 -92 18 -38 46 -51 125 -61 96 -11
149 -72 149 -172 0 -52 46 -92 105 -92 68 0 99 34 109 120 6 56 12 68 44 100
31 31 46 38 96 44 32 5 70 13 82 18 72 33 74 151 3 189 -12 6 -48 15 -80 19
-96 14 -136 55 -146 152 -5 50 -12 68 -34 90 -37 38 -104 39 -142 4z m113
-316 c28 -28 25 -64 -6 -89 -33 -26 -58 -27 -84 -1 -26 26 -25 60 0 88 26 27
64 28 90 2z"/>
<path d="M2335 6563 c-33 -8 -74 -54 -81 -90 -9 -50 11 -86 77 -138 32 -25 59
-49 59 -53 0 -4 -23 -23 -50 -42 -84 -58 -108 -116 -75 -180 21 -41 53 -60
101 -60 52 0 90 29 130 98 35 60 38 62 102 62 64 0 106 20 127 60 42 82 -7
158 -103 161 -70 2 -85 11 -122 79 -19 35 -46 71 -60 82 -28 20 -74 29 -105
21z"/>
<path d="M7745 6556 c-39 -17 -64 -46 -95 -109 -27 -55 -43 -64 -113 -66 -74
-2 -116 -42 -117 -108 0 -33 7 -50 29 -75 26 -30 35 -33 100 -36 l71 -4 40
-64 c44 -69 79 -94 136 -94 28 0 44 8 70 34 29 29 34 41 34 79 0 54 -26 90
-95 134 -25 15 -45 31 -45 35 0 4 26 27 59 53 63 49 81 78 81 128 0 42 -24 75
-66 93 -40 17 -51 17 -89 0z"/>
<path d="M1629 6349 c-16 -17 -29 -35 -29 -40 0 -5 -48 -111 -106 -237 -156
-333 -156 -334 -143 -371 13 -36 60 -65 89 -56 34 11 30 -1 -80 -231 -106
-221 -113 -240 -100 -280 14 -42 44 -64 87 -64 18 0 33 -3 33 -6 0 -4 -30 -68
-66 -143 -146 -298 -154 -322 -135 -370 21 -50 48 -56 219 -53 l154 3 -7 -38
c-3 -21 -9 -49 -12 -63 l-4 -25 105 0 106 -1 24 61 24 60 63 3 c35 1 69 -1 75
-5 6 -5 37 -60 69 -123 70 -140 78 -150 124 -150 47 1 125 41 128 66 2 10 -17
62 -41 114 l-43 95 27 16 c33 21 54 70 45 106 -3 15 -49 116 -100 225 -52 109
-96 206 -99 216 -5 14 2 17 41 18 38 1 52 7 71 30 37 43 26 84 -87 317 -56
114 -101 211 -101 216 0 5 14 11 30 15 22 4 35 15 44 38 16 37 12 53 -55 193
-23 50 -75 166 -115 260 -88 206 -109 235 -165 235 -33 0 -47 -6 -70 -31z
m164 -861 c43 -90 77 -169 77 -175 0 -10 -39 -13 -160 -13 -108 0 -160 4 -160
11 0 16 152 339 160 339 3 0 41 -73 83 -162z m77 -584 c44 -92 80 -168 80
-170 0 -2 -110 -4 -245 -4 -135 0 -245 2 -245 4 0 2 36 78 80 170 l79 166 86
0 86 0 79 -166z"/>
<path d="M8398 6353 c-14 -16 -38 -57 -53 -93 -39 -94 -168 -378 -204 -449
-17 -33 -31 -71 -31 -85 0 -29 43 -83 70 -88 17 -3 8 -27 -80 -207 -121 -247
-128 -267 -106 -309 20 -39 48 -54 91 -51 19 2 36 1 39 -2 3 -2 -42 -103 -100
-223 -114 -240 -124 -277 -81 -320 13 -13 29 -25 36 -27 10 -4 1 -33 -33 -113
-26 -60 -44 -112 -39 -115 88 -59 138 -69 177 -32 12 11 48 72 79 135 32 63
65 117 73 120 9 3 42 6 73 6 l58 0 24 -62 24 -62 107 0 107 -1 -5 25 c-3 14
-10 39 -14 57 -4 17 -5 34 -2 37 3 3 78 6 168 6 l162 0 26 31 c14 17 26 42 26
56 0 15 -47 127 -105 250 -58 123 -105 225 -105 227 0 2 18 7 40 11 47 8 80
44 80 87 0 17 -45 125 -100 244 -55 119 -100 222 -100 230 0 9 11 14 30 14 39
0 80 39 80 76 0 15 -37 108 -83 208 -46 99 -103 228 -128 285 -54 128 -82 161
-136 161 -30 0 -45 -7 -65 -27z m136 -879 c40 -87 72 -162 69 -166 -6 -11
-323 -10 -323 1 0 5 36 84 80 177 53 109 84 164 90 158 6 -6 43 -82 84 -170z
m84 -571 l81 -168 -241 -3 c-132 -1 -243 -1 -245 2 -2 2 32 78 76 170 l80 166
84 0 83 0 82 -167z"/>
<path d="M3644 6016 c-43 -19 -64 -53 -64 -102 0 -87 89 -132 166 -85 67 41
63 138 -8 181 -38 23 -52 24 -94 6z"/>
<path d="M6425 6016 c-60 -26 -82 -95 -50 -156 19 -37 43 -50 95 -50 34 0 48
6 76 34 52 52 44 128 -18 166 -38 23 -61 24 -103 6z"/>
<path d="M3599 5631 l-29 -29 0 -454 1 -453 89 -44 c88 -44 90 -44 110 -26 20
18 21 25 18 498 l-3 479 -33 29 c-46 41 -111 41 -153 0z"/>
<path d="M6399 5631 l-29 -29 0 -485 c0 -422 2 -486 15 -497 13 -11 31 -5 110
36 l95 49 -2 448 -3 449 -33 29 c-46 41 -111 41 -153 0z"/>
<path d="M4861 5615 c-284 -74 -527 -300 -637 -593 -63 -168 -66 -198 -71
-634 l-5 -398 -283 0 c-157 0 -295 -4 -309 -10 -50 -19 -71 -102 -41 -160 33
-64 -75 -60 1576 -58 l1501 3 28 32 c16 18 32 48 35 67 9 43 -16 99 -51 115
-17 7 -119 11 -314 11 l-289 0 -4 423 c-3 396 -5 427 -25 498 -50 175 -127
316 -240 439 -125 136 -267 222 -439 266 -133 34 -299 33 -432 -1z m368 -211
c234 -58 436 -259 522 -519 23 -68 23 -83 27 -482 l3 -413 -295 0 -296 0 0
580 c0 487 -2 586 -15 616 -31 74 -143 81 -185 11 -19 -31 -20 -55 -20 -619
l0 -588 -297 0 -298 0 0 378 c1 401 4 431 52 567 29 81 62 142 111 205 98 125
254 232 389 264 80 20 223 19 302 0z"/>
<path d="M4635 4645 c-37 -37 -35 -106 4 -146 28 -28 33 -29 121 -29 88 0 93
1 121 29 34 35 39 91 12 131 -26 38 -31 40 -136 40 -91 0 -100 -2 -122 -25z"/>
<path d="M5278 4653 c-45 -52 -45 -109 -1 -157 25 -27 27 -28 125 -24 95 3
101 4 124 31 33 39 33 95 -2 136 -26 31 -26 31 -128 31 -86 0 -105 -3 -118
-17z"/>
<path d="M2499 5491 c-24 -25 -29 -38 -29 -79 0 -45 4 -53 35 -81 43 -37 79
-40 126 -8 43 29 63 69 55 112 -16 82 -128 115 -187 56z"/>
<path d="M7504 5486 c-24 -24 -34 -43 -34 -65 0 -107 116 -156 192 -81 23 23
28 37 28 75 0 38 -5 52 -29 76 -24 24 -38 29 -76 29 -40 0 -52 -5 -81 -34z"/>
<path d="M2528 4991 c-111 -45 -176 -135 -198 -274 -38 -238 95 -449 284 -451
78 -1 135 16 188 57 62 48 102 105 128 186 19 61 22 86 18 169 -7 145 -57 236
-166 299 -61 36 -184 43 -254 14z m176 -231 c49 -48 50 -180 1 -239 -30 -34
-62 -42 -104 -25 -45 19 -65 66 -66 151 0 57 4 77 21 100 44 60 96 64 148 13z"/>
<path d="M7416 4995 c-114 -44 -187 -141 -207 -279 -51 -340 282 -587 506
-375 131 124 159 370 60 529 -26 42 -82 93 -128 117 -44 23 -179 28 -231 8z
m139 -209 c47 -20 68 -65 67 -147 0 -102 -36 -153 -105 -151 -110 3 -140 247
-36 299 30 16 33 16 74 -1z"/>
<path d="M3273 4505 c-29 -8 -70 -23 -92 -34 -41 -21 -124 -108 -116 -121 3
-4 17 -11 32 -14 16 -4 58 -21 95 -38 l66 -30 64 15 c106 27 206 -10 263 -95
45 -67 65 -86 96 -93 64 -14 149 32 149 82 0 41 -60 141 -120 202 -114 116
-288 166 -437 126z"/>
<path d="M6665 4507 c-121 -31 -228 -112 -291 -220 -63 -107 -54 -165 26 -187
70 -19 114 3 165 84 51 80 151 125 240 106 27 -6 56 -15 64 -19 10 -7 33 0 70
19 31 15 76 33 101 41 25 7 49 16 54 21 18 15 -96 114 -160 138 -72 27 -198
35 -269 17z"/>
<path d="M1555 4161 c-91 -24 -168 -93 -214 -190 -23 -50 -26 -68 -26 -171 0
-105 2 -120 27 -170 56 -112 127 -171 232 -191 145 -26 288 67 343 225 28 78
25 245 -5 310 -54 119 -143 184 -259 191 -38 2 -81 1 -98 -4z m128 -229 c64
-57 62 -210 -4 -256 -29 -20 -78 -21 -105 -1 -73 50 -71 206 2 264 32 26 74
23 107 -7z"/>
<path d="M8445 4159 c-92 -23 -174 -102 -211 -204 -27 -76 -25 -232 5 -307 28
-72 105 -158 168 -188 72 -34 171 -33 245 3 101 50 169 150 187 277 24 176
-54 343 -187 402 -53 24 -149 32 -207 17z m138 -227 c32 -29 47 -69 47 -127 0
-89 -41 -145 -106 -145 -104 0 -142 199 -52 275 35 30 76 29 111 -3z"/>
<path d="M2849 4132 c-134 -45 -245 -170 -278 -312 -38 -162 11 -332 126 -441
198 -187 501 -122 618 132 104 229 20 503 -183 601 -86 41 -196 48 -283 20z
m197 -221 c84 -51 124 -167 94 -270 -24 -84 -104 -151 -180 -151 -73 0 -148
60 -179 143 -28 74 -3 195 50 244 61 56 155 70 215 34z"/>
<path d="M7089 4137 c-151 -43 -266 -183 -291 -356 -51 -347 264 -611 559
-470 85 41 147 105 192 199 35 74 36 77 36 200 0 123 0 126 -37 202 -69 145
-189 228 -337 235 -42 1 -96 -3 -122 -10z m174 -221 c41 -17 91 -74 107 -121
7 -21 10 -67 8 -105 -3 -57 -9 -77 -34 -112 -89 -126 -241 -113 -314 27 -44
86 -27 220 36 277 53 47 133 61 197 34z"/>
<path d="M2475 4104 c-108 -22 -138 -30 -192 -54 -75 -34 -145 -97 -173 -155
-12 -25 -28 -91 -36 -150 -8 -58 -25 -142 -38 -186 l-23 -80 81 -38 c44 -21
104 -59 132 -83 l52 -45 73 4 c77 4 119 18 119 38 0 7 -14 45 -30 86 -38 92
-66 119 -125 119 -24 0 -46 3 -48 8 -3 4 3 58 12 121 19 122 23 130 88 153 28
10 36 21 54 75 21 66 63 148 80 158 11 7 12 35 2 34 -5 -1 -17 -3 -28 -5z"/>
<path d="M7640 4106 c0 -2 16 -30 35 -62 20 -33 45 -88 56 -124 18 -62 22 -66
65 -84 34 -14 50 -27 59 -50 13 -33 39 -205 32 -213 -3 -2 -28 -8 -57 -12 -28
-5 -60 -17 -70 -27 -19 -19 -80 -156 -80 -179 0 -7 12 -21 27 -30 21 -14 40
-17 97 -12 65 5 75 8 110 42 39 37 122 83 189 104 20 7 37 17 37 22 0 5 -9 42
-20 83 -12 41 -29 123 -39 183 -21 124 -49 190 -97 233 -66 57 -190 109 -301
124 -24 4 -43 4 -43 2z"/>
<path d="M694 3606 c-17 -8 -39 -24 -48 -37 -32 -46 -12 -144 33 -169 12 -6
104 -10 226 -10 l206 0 59 42 c33 23 60 46 60 50 0 19 -43 92 -67 114 -26 24
-29 24 -232 24 -151 -1 -214 -4 -237 -14z"/>
<path d="M9020 3613 c-42 -16 -114 -125 -93 -143 4 -4 31 -23 59 -43 l52 -37
211 0 211 0 32 29 c29 26 33 36 33 79 0 36 -6 56 -20 72 -39 44 -72 50 -277
49 -106 0 -200 -3 -208 -6z"/>
<path d="M3527 3538 c-20 -11 -87 -141 -87 -169 0 -9 9 -24 21 -35 19 -17 35
-19 162 -16 159 3 199 -6 216 -46 7 -18 11 -83 9 -179 l-3 -152 -75 66 c-96
84 -128 98 -174 79 -61 -25 -87 -117 -47 -167 10 -14 66 -67 124 -118 58 -51
108 -100 112 -109 10 -26 55 -314 50 -322 -2 -4 5 -16 16 -26 47 -42 70 -114
120 -366 27 -137 49 -277 49 -311 0 -105 40 -157 121 -157 39 0 84 28 93 58 6
19 217 1283 261 1565 l28 177 552 0 553 0 16 -92 c15 -86 135 -812 221 -1333
61 -368 58 -362 131 -372 84 -11 134 42 134 145 0 68 82 514 107 586 10 27 33
65 51 84 19 21 32 45 32 61 0 37 27 184 47 262 18 64 21 68 126 164 60 54 115
112 124 128 38 75 -45 176 -122 147 -12 -5 -58 -40 -101 -79 -44 -39 -83 -71
-87 -71 -5 0 -7 74 -5 165 4 220 -7 209 211 213 138 3 166 6 186 22 l25 18
-34 76 c-49 114 -56 117 -209 110 -69 -3 -149 -12 -177 -20 -72 -19 -144 -86
-186 -172 l-33 -67 -7 -510 c-6 -469 -15 -644 -30 -605 -9 21 -42 206 -83 465
-19 121 -50 318 -70 439 -19 120 -35 222 -35 227 0 5 18 9 41 9 114 0 171 129
89 203 l-31 27 -890 -2 -891 -3 -24 -28 c-44 -52 -25 -159 33 -186 13 -6 42
-11 63 -11 36 0 40 -3 40 -25 0 -14 -23 -164 -50 -333 -28 -169 -59 -365 -70
-437 -32 -206 -63 -365 -71 -365 -15 0 -20 120 -27 630 -7 509 -8 526 -29 572
-47 102 -147 176 -247 184 -147 11 -253 12 -269 2z"/>
<path d="M1437 3309 c-132 -18 -209 -73 -243 -172 l-15 -46 -202 -3 c-186 -3
-205 -5 -243 -25 -53 -28 -107 -91 -122 -142 -9 -28 -12 -265 -12 -860 0 -902
-3 -864 60 -896 36 -19 63 -19 99 -1 58 30 56 14 61 480 l5 431 54 3 c29 2 69
1 87 -3 l34 -6 0 -163 0 -164 -34 -6 c-52 -10 -86 -56 -86 -115 0 -63 27 -99
81 -107 l39 -7 0 -264 0 -265 29 -28 c49 -50 105 -52 158 -6 l28 24 3 271 3
271 529 0 c291 0 531 -3 533 -7 2 -5 -7 -64 -20 -132 -13 -69 -22 -135 -18
-149 10 -42 50 -72 95 -72 84 0 99 25 129 200 30 172 24 160 82 160 40 0 49
-3 49 -17 0 -10 -9 -101 -20 -203 -33 -307 -27 -348 50 -371 31 -9 43 -8 74 6
20 10 42 27 48 38 6 11 19 110 29 219 10 108 22 226 26 260 l8 63 45 0 45 0 3
-221 2 -221 26 -24 c36 -34 95 -33 131 4 l28 27 3 220 3 220 50 0 49 0 0 -265
0 -265 28 -32 c25 -27 36 -31 76 -31 54 0 89 26 107 80 8 25 10 200 6 637 -3
331 -2 607 2 614 10 16 101 -15 196 -66 l70 -38 0 -200 0 -199 -55 -6 c-30 -4
-63 -10 -73 -14 -25 -10 -47 -57 -47 -99 0 -78 42 -116 130 -116 l50 0 0 -264
c0 -249 1 -265 20 -289 24 -31 78 -50 114 -41 14 3 39 22 56 40 l30 35 0 597
0 598 -26 53 c-43 86 -161 167 -281 191 -34 7 -54 17 -57 28 -3 9 -26 125 -51
257 -26 132 -53 254 -60 271 -21 50 -81 110 -134 133 -82 35 -178 44 -391 38
-112 -4 -225 -13 -265 -22 -94 -20 -185 -66 -230 -117 -37 -41 -115 -191 -115
-222 0 -9 -4 -16 -8 -16 -4 0 -16 54 -25 119 -10 66 -25 140 -33 165 -34 100
-151 188 -300 227 -92 23 -383 34 -497 18z m377 -219 c104 -11 188 -46 210
-88 8 -15 19 -63 26 -107 7 -44 28 -149 47 -234 18 -85 31 -156 28 -159 -8 -8
-162 -10 -174 -3 -7 4 -13 68 -16 162 -7 206 -9 216 -48 239 -18 11 -43 20
-57 20 -35 0 -89 -35 -100 -66 -6 -14 -10 -101 -10 -193 l0 -168 -42 2 c-24 1
-94 2 -155 3 l-113 2 0 300 0 300 158 0 c86 0 197 -5 246 -10z m1364 -157 c34
-4 56 -12 62 -22 7 -14 40 -186 69 -363 l8 -48 -449 0 -449 0 7 23 c22 72 117
306 132 327 27 37 98 68 177 79 84 10 369 13 443 4z m-1988 -256 l0 -182 -52
-19 c-66 -23 -122 -78 -137 -134 l-12 -42 -84 0 -85 0 0 280 0 280 185 0 185
0 0 -183z m2008 -674 l2 -263 -990 0 -990 0 0 265 0 265 988 -2 987 -3 3 -262z"/>
<path d="M2675 2770 c-33 -13 -47 -37 -49 -81 0 -32 4 -44 24 -59 56 -43 130
-6 130 65 0 33 -27 75 -49 75 -5 0 -15 2 -23 4 -7 3 -22 1 -33 -4z"/>
<path d="M2999 2769 c-79 -29 -53 -159 31 -159 82 0 112 118 39 155 -32 17
-34 17 -70 4z"/>
<path d="M2654 2041 c-63 -27 -86 -125 -41 -177 18 -20 35 -28 73 -31 46 -5
53 -3 82 27 43 43 45 105 5 149 -30 33 -83 46 -119 32z"/>
<path d="M8318 3310 c-142 -17 -253 -64 -328 -139 -57 -57 -81 -117 -105 -261
-17 -101 -34 -159 -35 -117 0 10 -18 56 -40 101 -94 199 -214 253 -580 263
-282 8 -396 -18 -472 -106 -45 -53 -50 -70 -103 -356 -25 -137 -47 -250 -48
-251 -1 -1 -31 -10 -66 -19 -130 -33 -222 -100 -268 -193 l-28 -57 0 -585 c0
-630 0 -633 52 -661 14 -7 43 -14 64 -14 31 0 46 7 72 33 l32 32 3 265 3 265
45 0 c83 0 127 41 127 119 0 74 -42 111 -127 111 l-43 0 -5 168 c-7 236 -7
237 55 269 67 33 173 73 196 73 10 0 19 -6 18 -12 0 -7 1 -293 1 -635 l2 -623
28 -31 c24 -27 36 -32 74 -33 89 -2 119 55 114 214 -2 52 -1 159 2 238 l5 142
49 0 48 0 0 -219 c0 -218 0 -220 24 -248 34 -39 95 -39 133 0 l28 27 3 220 3
220 43 0 43 0 6 -42 c3 -24 13 -133 23 -243 9 -110 21 -217 26 -238 11 -46 47
-72 101 -72 32 0 45 7 73 38 19 20 34 45 34 54 0 10 -11 124 -24 253 -13 129
-22 238 -19 243 2 4 24 7 48 7 51 0 46 11 76 -160 30 -174 46 -200 124 -200
29 0 45 8 71 34 41 41 42 56 14 191 -11 53 -20 106 -20 116 0 18 18 19 560 19
l560 0 0 -264 0 -264 26 -31 c32 -38 80 -49 126 -27 65 31 68 44 68 330 l0
256 31 0 c22 0 41 10 66 35 33 33 35 39 31 86 -6 61 -36 97 -90 105 l-38 7 0
162 c0 187 -7 175 100 175 l69 0 3 -434 3 -434 24 -26 c26 -28 76 -42 110 -31
11 3 34 19 50 35 l31 28 0 844 c0 795 -1 845 -19 883 -22 50 -67 96 -118 121
-33 17 -66 19 -265 22 -219 3 -228 4 -228 23 0 29 -34 90 -67 121 -39 38 -108
66 -189 78 -79 11 -298 11 -396 0z m430 -512 l2 -298 -160 0 -160 0 0 174 c0
160 -2 175 -21 199 -30 39 -87 54 -127 33 -55 -28 -62 -56 -62 -241 l0 -165
-101 0 c-82 0 -100 3 -96 14 10 26 56 242 77 359 11 65 26 127 33 138 18 30
104 67 177 78 36 5 148 8 250 7 l185 -1 3 -297z m-1358 132 c175 -19 203 -47
281 -280 23 -69 44 -131 47 -137 3 -10 -88 -13 -437 -13 -342 0 -441 3 -441
12 0 27 62 374 70 395 7 17 19 23 52 26 92 8 338 6 428 -3z m1990 -350 l0
-280 -80 0 c-68 0 -81 3 -86 18 -28 96 -98 157 -192 169 l-52 6 0 183 0 184
205 0 205 0 0 -280z m-390 -575 l0 -265 -1015 0 -1014 0 -3 253 c-2 138 -1
258 1 265 2 9 214 12 1017 12 l1014 0 0 -265z"/>
<path d="M7085 2769 c-51 -29 -62 -99 -22 -137 49 -47 131 -8 131 62 0 59 -62
101 -109 75z"/>
<path d="M7397 2758 c-22 -17 -35 -58 -28 -85 16 -61 75 -81 125 -42 33 26 37
88 6 119 -23 23 -77 27 -103 8z"/>
<path d="M7433 2043 c-39 -8 -73 -59 -73 -110 0 -98 105 -140 176 -69 79 79 9
202 -103 179z"/>
</g>
</svg>
