<?xml version="1.0" standalone="no"?>
<!DOCTYPE svg PUBLIC "-//W3C//DTD SVG 20010904//EN"
 "http://www.w3.org/TR/2001/REC-SVG-20010904/DTD/svg10.dtd">
<svg version="1.0" xmlns="http://www.w3.org/2000/svg"
 width="1024.000000pt" height="1024.000000pt" viewBox="0 0 1024.000000 1024.000000"
 preserveAspectRatio="xMidYMid meet">

<g transform="translate(0.000000,1024.000000) scale(0.100000,-0.100000)"
fill="#000000" stroke="none">
<path d="M5060 8930 c-18 -18 -20 -33 -20 -165 l0 -145 -131 0 c-158 0 -188
-11 -189 -70 0 -14 7 -36 16 -48 14 -21 22 -22 160 -22 l144 0 -1 -272 0 -273
-221 -175 c-239 -189 -655 -522 -863 -691 -71 -58 -137 -117 -145 -132 -14
-25 -12 -30 64 -142 97 -144 123 -175 146 -175 10 0 45 20 77 44 l58 44 6 -61
c9 -84 10 -264 3 -318 -6 -43 -10 -47 -128 -135 -66 -50 -161 -123 -211 -161
-49 -38 -280 -212 -513 -387 -232 -175 -427 -327 -433 -338 -14 -26 5 -82 34
-95 29 -14 56 -3 128 53 33 25 62 45 64 43 3 -4 8 -1499 6 -1921 l-1 -238
-335 0 c-184 0 -335 3 -335 8 0 4 27 45 60 92 33 47 60 88 60 91 0 4 30 9 68
11 121 9 222 80 282 198 51 101 63 167 64 343 1 153 0 159 -21 177 -25 20 -54
17 -133 -16 -149 -62 -283 -170 -333 -269 -55 -111 -72 -230 -43 -313 14 -40
14 -41 -22 -93 l-37 -52 -8 74 c-4 41 -6 200 -4 354 3 259 5 285 26 344 34 97
43 107 105 114 151 15 265 142 302 337 16 81 13 163 -12 309 -14 84 -25 108
-54 111 -34 5 -51 -2 -121 -49 -152 -99 -268 -230 -312 -350 -28 -75 -30 -220
-4 -270 17 -34 17 -35 -13 -107 -16 -40 -30 -82 -30 -94 0 -12 -4 -20 -8 -18
-5 2 -44 40 -86 86 -69 74 -77 86 -71 111 10 47 -17 95 -69 126 -58 34 -163
67 -187 60 -17 -6 -79 -95 -79 -114 0 -5 17 -39 37 -76 45 -81 93 -118 153
-118 37 0 46 -6 100 -63 70 -76 127 -158 161 -234 24 -54 24 -60 27 -383 l3
-327 -45 0 c-38 0 -46 3 -46 19 0 39 -41 148 -78 210 -39 64 -39 65 -25 109
68 227 -137 468 -481 567 -110 31 -142 32 -157 3 -14 -27 -6 -204 15 -319 29
-157 122 -291 244 -351 60 -30 75 -33 157 -33 68 0 93 -4 103 -15 22 -25 92
-172 86 -181 -3 -5 -115 -9 -249 -9 l-244 0 -20 -26 c-26 -34 -26 -54 0 -88
l20 -26 3585 0 c3571 0 3584 0 3604 20 23 23 26 68 6 96 -13 18 -32 19 -259
24 l-245 5 17 50 c10 28 31 72 47 99 l29 48 95 2 c86 1 102 4 162 34 112 55
207 182 237 317 15 66 31 216 31 286 0 61 -18 89 -58 89 -34 0 -210 -59 -277
-93 -146 -73 -232 -152 -286 -263 -36 -72 -48 -167 -31 -237 11 -41 9 -47 -33
-132 -25 -49 -50 -115 -57 -147 l-12 -58 -43 0 -43 0 0 313 c0 302 1 314 24
379 27 76 67 140 151 237 51 59 65 70 93 70 73 2 135 51 187 147 17 33 25 59
21 72 -13 39 -66 102 -87 102 -37 0 -173 -63 -206 -96 -28 -27 -33 -39 -33
-80 -1 -47 -3 -52 -80 -131 -79 -81 -80 -82 -86 -55 -4 15 -20 56 -36 92 l-29
65 18 40 c13 29 18 64 17 130 0 101 -20 165 -77 251 -64 98 -219 229 -323 275
-41 19 -47 19 -69 5 -58 -38 -82 -363 -37 -494 57 -160 170 -261 294 -262 l47
0 30 -63 c16 -34 34 -92 40 -127 8 -54 9 -378 2 -644 l-1 -58 -40 60 c-40 59
-40 60 -25 95 8 20 15 63 15 95 0 211 -134 381 -381 482 -81 34 -130 38 -150
13 -22 -26 -19 -320 5 -397 58 -193 174 -306 319 -312 47 -2 61 -7 76 -26 33
-42 111 -162 111 -170 0 -4 -148 -8 -330 -8 l-330 0 0 1086 c0 868 3 1085 13
1077 6 -5 38 -30 70 -56 31 -25 66 -49 77 -52 47 -15 99 55 77 103 -7 15 -269
218 -632 490 -341 255 -630 474 -643 485 -22 20 -22 23 -17 211 2 105 5 199 5
209 0 15 11 9 51 -27 65 -59 93 -67 124 -35 37 39 185 261 185 279 0 9 -19 34
-42 57 -43 41 -380 311 -838 673 -135 106 -271 215 -302 243 l-58 49 0 269 0
269 144 0 c138 0 146 1 160 22 22 31 20 60 -5 92 -20 26 -21 26 -160 26 l-139
0 0 136 c0 168 -10 194 -77 194 -20 0 -41 -8 -53 -20z m258 -1285 c388 -306
649 -513 839 -665 45 -36 82 -71 82 -78 1 -14 -48 -92 -58 -92 -9 0 -153 110
-505 384 -499 389 -548 426 -562 426 -7 0 -102 -71 -211 -158 -196 -156 -551
-432 -752 -586 -58 -43 -106 -75 -108 -70 -2 5 -17 29 -33 54 -29 43 -29 46
-11 60 144 116 359 287 526 420 115 91 292 231 394 313 102 81 189 147 194
147 5 0 97 -70 205 -155z m-53 -323 c77 -59 204 -157 281 -217 78 -61 194
-150 258 -200 l116 -89 0 -204 0 -204 -27 18 c-16 9 -178 130 -361 268 -444
335 -407 309 -434 295 -13 -7 -61 -42 -108 -79 -193 -152 -667 -510 -675 -510
-3 0 -5 92 -5 204 l0 205 38 31 c20 17 107 84 192 150 85 66 198 154 250 194
271 212 316 246 325 246 6 0 73 -49 150 -108z m765 -1188 c503 -377 921 -688
928 -691 9 -4 12 -243 12 -1149 l0 -1144 -654 0 -655 0 -3 398 -3 397 -26 66
c-67 174 -189 302 -349 368 -258 106 -563 -67 -683 -386 -20 -55 -21 -77 -25
-450 l-3 -393 -655 0 -654 0 0 1138 0 1139 87 64 c48 35 171 127 273 203 102
77 412 311 690 520 667 501 779 587 786 597 3 5 8 9 12 9 4 0 419 -309 922
-686z m1661 -1471 c69 -73 129 -173 129 -215 -1 -20 -2 -20 -14 7 -20 45 -53
72 -74 59 -26 -17 -26 -49 2 -109 l25 -55 -23 0 c-42 0 -102 54 -136 124 -30
60 -33 77 -38 182 l-5 117 32 -19 c18 -10 64 -52 102 -91z m-5025 61 c4 -20 4
-71 0 -113 -10 -130 -77 -235 -165 -261 -17 -5 -31 -6 -31 -3 0 3 12 30 26 59
28 57 29 91 2 108 -22 13 -53 -13 -70 -60 -7 -19 -15 -34 -19 -34 -14 0 13 87
44 139 30 50 178 201 197 201 5 0 12 -16 16 -36z m2583 -495 c132 -65 237
-206 260 -349 11 -68 15 -687 5 -714 -5 -14 -51 -16 -405 -16 l-399 0 0 338
c0 366 7 430 55 529 31 62 101 143 162 184 110 76 207 84 322 28z m-3532 -401
c116 -70 203 -173 203 -243 l0 -30 -21 35 c-46 77 -89 106 -117 78 -20 -20
-14 -42 28 -107 22 -34 40 -64 40 -66 0 -13 -61 -2 -105 19 -84 39 -152 135
-173 246 -16 85 -21 128 -15 134 8 8 99 -29 160 -66z m5850 -51 c59 -56 113
-141 113 -176 0 -9 -14 5 -30 31 -34 54 -43 61 -70 53 -30 -10 -26 -65 11
-133 36 -68 24 -79 -45 -38 -82 48 -131 152 -143 299 l-6 79 54 -27 c29 -15
82 -55 116 -88z m1099 46 c-12 -122 -55 -222 -115 -271 -47 -38 -171 -82 -171
-61 0 5 21 40 46 78 39 59 44 72 34 90 -18 35 -54 26 -92 -21 -19 -24 -40 -54
-46 -68 -11 -22 -12 -20 -7 20 13 96 100 191 240 260 115 57 119 56 111 -27z
m-5840 -15 c-14 -147 -64 -252 -141 -295 -72 -41 -81 -32 -40 44 40 76 43 93
15 118 -25 23 -40 11 -81 -60 -36 -62 -39 -32 -5 42 31 67 95 136 170 185 85
55 90 53 82 -34z"/>
<path d="M4974 5586 c-181 -58 -301 -198 -327 -381 -55 -379 343 -654 693
-479 149 75 250 243 250 413 -1 133 -43 235 -135 327 -130 131 -309 176 -481
120z m74 -253 l-3 -118 -122 -3 c-140 -3 -137 -5 -97 75 29 60 88 117 148 144
77 35 77 35 74 -98z m229 86 c55 -27 127 -107 146 -164 l16 -45 -127 0 -127 0
-3 121 -4 122 29 -7 c15 -4 47 -16 70 -27z m-232 -474 c0 -114 -1 -120 -20
-117 -68 12 -162 89 -199 164 -40 81 -43 79 97 76 l122 -3 0 -120z m385 108
c-1 -61 -83 -164 -161 -201 -86 -41 -84 -43 -87 96 l-3 122 126 0 c112 0 125
-2 125 -17z"/>
<path d="M3974 5056 c-62 -42 -118 -115 -147 -193 -21 -57 -22 -71 -25 -588
-2 -291 0 -545 3 -564 4 -18 17 -44 30 -57 24 -24 27 -24 214 -24 l190 0 21
27 c21 27 21 30 18 602 l-3 576 -27 55 c-15 31 -43 74 -62 97 -37 43 -123 103
-147 103 -8 0 -37 -15 -65 -34z m116 -191 l35 -49 3 -518 3 -518 -91 0 -90 0
0 505 c0 446 2 510 16 538 26 51 65 98 77 94 7 -2 28 -26 47 -52z"/>
<path d="M6125 5056 c-62 -43 -108 -99 -143 -173 l-27 -58 -3 -573 -3 -572 25
-25 c25 -25 26 -25 211 -25 l187 0 29 29 29 29 0 552 c0 530 -1 553 -21 612
-32 95 -90 169 -169 217 -47 28 -57 27 -115 -13z m115 -198 l40 -61 0 -509 0
-508 -90 0 -90 0 0 513 c0 502 0 513 21 547 25 42 59 80 71 80 5 0 26 -28 48
-62z"/>
<path d="M4886 3509 c-50 -39 -24 -129 38 -129 37 0 76 37 76 71 0 34 -39 79
-68 79 -11 0 -31 -9 -46 -21z"/>
<path d="M5223 3504 c-20 -20 -24 -31 -19 -57 7 -38 39 -67 73 -67 27 0 73 41
73 65 0 29 -29 72 -52 79 -38 10 -48 7 -75 -20z"/>
<path d="M4180 8729 c-75 -27 -86 -39 -70 -78 15 -36 33 -39 106 -15 61 21 74
31 74 59 0 22 -28 56 -46 54 -5 0 -34 -9 -64 -20z"/>
<path d="M5953 8738 c-21 -25 -24 -55 -8 -71 15 -15 109 -47 139 -47 18 0 36
30 36 60 0 37 -143 88 -167 58z"/>
<path d="M3823 8604 c-70 -29 -84 -51 -58 -91 14 -21 22 -24 48 -19 57 11 122
49 125 73 3 20 -29 64 -45 63 -5 -1 -36 -12 -70 -26z"/>
<path d="M6306 8615 c-9 -9 -16 -29 -16 -45 0 -26 6 -31 69 -55 75 -30 97 -28
110 7 12 32 -2 52 -53 76 -67 32 -91 36 -110 17z"/>
<path d="M3500 8449 c-73 -40 -84 -52 -76 -83 11 -44 39 -50 98 -20 91 46 108
74 68 114 -25 25 -24 25 -90 -11z"/>
<path d="M6634 8455 c-24 -37 -14 -57 46 -92 65 -39 94 -42 115 -9 22 34 8 57
-59 95 -65 37 -81 38 -102 6z"/>
<path d="M3215 8289 c-97 -53 -125 -88 -100 -125 22 -34 53 -30 118 17 62 44
70 66 37 99 -23 23 -27 24 -55 9z"/>
<path d="M4387 8282 c-26 -28 -21 -69 9 -89 24 -15 29 -15 53 -2 16 9 27 25
29 43 7 55 -56 87 -91 48z"/>
<path d="M5770 8280 c-11 -11 -20 -29 -20 -40 0 -25 34 -60 58 -60 25 0 62 36
62 60 0 24 -37 60 -62 60 -10 0 -27 -9 -38 -20z"/>
<path d="M6950 8281 c-16 -30 -12 -45 18 -73 71 -67 116 -76 142 -28 14 26 5
40 -50 84 -51 40 -93 47 -110 17z"/>
<path d="M4040 8130 c-11 -11 -20 -29 -20 -40 0 -25 34 -60 58 -60 48 0 70 76
30 104 -30 21 -44 20 -68 -4z"/>
<path d="M6131 8134 c-26 -19 -28 -65 -3 -87 24 -22 34 -21 66 4 30 24 33 50
9 71 -29 24 -49 28 -72 12z"/>
<path d="M3684 8088 c-17 -6 -44 -20 -60 -33 -25 -20 -27 -26 -19 -50 17 -47
37 -52 94 -25 28 13 59 32 68 42 16 18 16 22 2 46 -16 30 -39 35 -85 20z"/>
<path d="M6470 8079 c-20 -37 -8 -62 45 -91 59 -33 76 -34 98 -10 35 39 15 77
-56 107 -49 20 -74 19 -87 -6z"/>
<path d="M7252 8077 c-12 -13 -22 -30 -22 -39 0 -25 113 -118 144 -118 29 0
53 37 43 63 -6 17 -123 117 -136 117 -4 0 -17 -10 -29 -23z"/>
<path d="M2881 8050 c-66 -53 -86 -82 -72 -109 15 -27 48 -36 74 -18 45 30
117 99 117 113 0 18 -36 54 -54 54 -8 0 -37 -18 -65 -40z"/>
<path d="M7537 7832 c-10 -10 -17 -27 -17 -38 0 -18 103 -134 119 -134 15 0
61 41 61 54 0 19 -78 104 -111 121 -35 19 -33 19 -52 -3z"/>
<path d="M2584 7784 c-58 -61 -65 -81 -36 -107 30 -27 46 -21 106 41 60 61 66
79 38 105 -30 28 -51 20 -108 -39z"/>
<path d="M3250 7780 c-22 -22 -25 -42 -10 -71 21 -39 100 -12 100 34 0 21 -35
57 -55 57 -8 0 -24 -9 -35 -20z"/>
<path d="M6917 7782 c-20 -22 -22 -63 -5 -80 7 -7 24 -12 38 -12 14 0 31 5 38
12 18 18 14 63 -6 81 -24 22 -45 21 -65 -1z"/>
<path d="M3618 7759 c-25 -14 -24 -65 2 -79 46 -25 91 39 50 72 -25 21 -29 21
-52 7z"/>
<path d="M6562 7754 c-29 -20 -28 -50 2 -69 19 -13 29 -14 45 -5 28 14 29 65
2 80 -25 13 -22 13 -49 -6z"/>
<path d="M2345 7528 c-57 -68 -59 -119 -2 -126 27 -3 48 14 94 81 l27 39 -27
24 c-16 13 -34 24 -42 24 -7 0 -30 -19 -50 -42z"/>
<path d="M7785 7549 c-18 -19 -18 -21 -2 -52 26 -47 75 -97 97 -97 23 0 50 26
50 48 0 37 -74 122 -105 122 -12 0 -30 -9 -40 -21z"/>
<path d="M2872 7498 c-21 -21 -14 -66 13 -84 23 -15 27 -15 50 0 17 11 25 26
25 44 0 35 -16 52 -50 52 -14 0 -31 -5 -38 -12z"/>
<path d="M7292 7498 c-7 -7 -12 -24 -12 -38 0 -35 17 -50 57 -50 32 0 53 21
53 54 0 38 -70 62 -98 34z"/>
<path d="M3011 7361 c-11 -11 -25 -38 -32 -60 -11 -36 -10 -43 6 -61 28 -31
59 -25 94 19 35 44 39 80 13 104 -25 23 -58 21 -81 -2z"/>
<path d="M7134 7355 c-20 -31 -13 -61 25 -102 34 -38 50 -40 81 -15 19 16 22
24 16 56 -14 76 -88 113 -122 61z"/>
<path d="M2154 7288 c-51 -58 -67 -105 -45 -131 25 -31 58 -21 96 31 40 55 44
85 13 106 -30 21 -41 20 -64 -6z"/>
<path d="M7997 7292 c-23 -26 -22 -34 18 -97 39 -61 68 -71 100 -35 22 24 16
53 -25 108 -33 47 -65 55 -93 24z"/>
<path d="M2627 7212 c-22 -25 -21 -55 2 -76 26 -24 62 -17 80 15 13 24 13 29
-2 53 -21 31 -56 34 -80 8z"/>
<path d="M7547 7212 c-35 -39 -8 -96 42 -90 33 4 54 43 39 72 -21 40 -55 47
-81 18z"/>
<path d="M8184 7035 c-24 -24 -24 -26 -8 -57 28 -56 64 -98 83 -98 11 0 29 8
42 19 l23 19 -19 42 c-21 46 -66 100 -84 100 -7 0 -23 -11 -37 -25z"/>
<path d="M1949 7003 c-41 -65 -47 -93 -24 -110 42 -30 71 -15 113 60 27 46 27
59 4 80 -33 30 -60 21 -93 -30z"/>
<path d="M2463 7008 c-17 -22 -21 -42 -12 -65 13 -34 75 -33 91 2 17 38 -3 75
-41 75 -16 0 -33 -6 -38 -12z"/>
<path d="M7706 7004 c-27 -27 -19 -62 19 -81 46 -24 91 29 65 76 -13 25 -61
28 -84 5z"/>
<path d="M1818 6763 c-8 -10 -23 -39 -33 -66 -17 -46 -17 -48 1 -68 32 -36 65
-22 96 41 33 67 33 65 8 90 -25 25 -52 26 -72 3z"/>
<path d="M8336 6761 c-15 -17 -16 -25 -7 -53 18 -54 49 -98 70 -98 10 0 29 8
42 19 22 18 22 20 9 61 -28 84 -76 114 -114 71z"/>
<path d="M2282 6728 c-23 -28 -18 -74 9 -88 30 -16 64 -5 78 26 10 22 9 31 -4
50 -17 26 -65 33 -83 12z"/>
<path d="M7892 6728 c-23 -28 -18 -74 9 -88 30 -16 64 -5 78 26 10 22 9 31 -4
50 -17 26 -65 33 -83 12z"/>
<path d="M1686 6483 c-7 -16 -20 -48 -27 -72 -12 -40 -11 -45 6 -57 10 -8 31
-14 46 -14 22 0 30 8 48 49 26 61 26 83 3 104 -28 26 -59 21 -76 -10z"/>
<path d="M8461 6491 c-22 -22 -19 -46 14 -115 14 -28 23 -36 45 -36 15 0 35 9
44 19 16 17 16 25 6 58 -23 70 -39 93 -65 93 -14 0 -34 -9 -44 -19z"/>
<path d="M3140 6470 c-29 -29 -26 -74 6 -99 35 -27 59 -26 89 4 46 45 19 115
-45 115 -17 0 -39 -9 -50 -20z"/>
<path d="M6990 6470 c-11 -11 -20 -33 -20 -48 0 -33 36 -72 67 -72 33 0 73 38
73 69 0 61 -77 94 -120 51z"/>
<path d="M2138 6466 c-31 -23 -28 -78 6 -94 54 -24 101 44 60 89 -20 22 -42
24 -66 5z"/>
<path d="M8024 6455 c-35 -54 18 -116 71 -81 46 30 23 106 -33 106 -12 0 -29
-11 -38 -25z"/>
<path d="M1576 6190 c-31 -77 -15 -120 43 -120 24 0 30 8 47 73 12 45 11 53
-3 69 -9 10 -28 18 -43 18 -23 0 -31 -7 -44 -40z"/>
<path d="M8565 6213 c-19 -18 -16 -48 9 -108 15 -34 18 -36 48 -30 18 4 36 9
41 12 12 7 8 61 -9 103 -14 33 -21 40 -44 40 -16 0 -36 -7 -45 -17z"/>
<path d="M1986 6095 c-36 -37 -26 -89 20 -101 52 -13 87 62 46 99 -23 21 -46
22 -66 2z"/>
<path d="M3137 6092 c-39 -42 -9 -112 46 -112 57 0 89 77 49 113 -25 22 -75
21 -95 -1z"/>
<path d="M7000 6090 c-58 -58 26 -146 88 -92 31 27 35 55 11 85 -25 33 -70 36
-99 7z"/>
<path d="M8174 6084 c-23 -34 -9 -75 28 -88 54 -19 93 58 50 97 -27 25 -59 21
-78 -9z"/>
<path d="M1512 5938 c-5 -7 -16 -42 -23 -77 -11 -59 -11 -65 6 -77 24 -18 59
-18 74 0 6 7 16 39 23 71 11 55 10 59 -11 77 -27 21 -54 23 -69 6z"/>
<path d="M8645 5936 c-17 -12 -18 -19 -7 -76 16 -90 40 -109 90 -74 20 14 23
21 17 58 -12 71 -31 106 -58 106 -13 0 -32 -6 -42 -14z"/>
<path d="M1907 5822 c-26 -28 -21 -69 9 -89 24 -15 29 -15 53 -2 31 18 38 51
17 85 -20 29 -56 32 -79 6z"/>
<path d="M8257 5822 c-23 -25 -21 -58 3 -82 24 -24 38 -25 68 -4 42 29 18 104
-35 104 -11 0 -27 -8 -36 -18z"/>
<path d="M1468 5642 c-11 -2 -19 -16 -22 -35 -18 -119 -13 -137 40 -137 40 0
47 13 57 97 6 54 0 66 -38 75 -11 2 -28 2 -37 0z"/>
<path d="M8697 5633 c-9 -8 -9 -81 -1 -122 8 -37 41 -50 81 -32 24 11 25 15
19 67 -9 77 -20 94 -60 94 -18 0 -36 -3 -39 -7z"/>
<path d="M1856 5544 c-33 -32 -8 -104 35 -104 29 0 59 31 59 60 0 49 -61 78
-94 44z"/>
<path d="M8310 5540 c-27 -27 -26 -65 2 -84 29 -21 51 -20 71 2 22 24 21 65
-1 85 -25 22 -48 21 -72 -3z"/>
<path d="M2252 5344 c-31 -21 -31 -87 0 -108 48 -34 108 -4 108 54 0 58 -60
88 -108 54z"/>
<path d="M7902 5340 c-30 -28 -30 -83 0 -104 48 -34 108 -5 108 50 0 65 -63
96 -108 54z"/>
<path d="M1439 5334 c-28 -8 -41 -138 -17 -162 13 -13 57 -16 74 -4 14 9 27
132 17 149 -10 14 -51 23 -74 17z"/>
<path d="M8738 5329 c-14 -8 -18 -24 -18 -77 0 -73 10 -92 46 -92 49 0 54 8
54 86 0 62 -3 75 -19 84 -24 12 -41 12 -63 -1z"/>
<path d="M1832 5290 c-24 -39 -8 -96 28 -100 36 -5 50 2 65 30 14 27 14 33 0
60 -12 24 -22 30 -48 30 -21 0 -36 -7 -45 -20z"/>
<path d="M8320 5295 c-31 -37 1 -115 46 -115 24 0 54 39 54 68 0 52 -69 84
-100 47z"/>
<path d="M1816 5028 c-9 -12 -16 -32 -16 -43 0 -47 51 -81 86 -57 21 13 34 52
28 77 -12 47 -72 61 -98 23z"/>
<path d="M8330 5031 c-26 -49 0 -111 47 -111 46 0 72 80 37 114 -22 23 -71 20
-84 -3z"/>
<path d="M1428 5023 c-19 -5 -24 -29 -20 -96 5 -58 27 -75 70 -55 24 12 27 19
30 69 4 76 -18 99 -80 82z"/>
<path d="M8730 5011 c-5 -11 -10 -44 -10 -74 0 -48 3 -55 25 -65 37 -17 52
-15 69 10 19 27 21 119 4 136 -20 20 -76 15 -88 -7z"/>
<path d="M2031 4804 c-12 -15 -21 -34 -21 -43 0 -28 30 -61 56 -61 57 0 87 83
42 114 -32 23 -54 20 -77 -10z"/>
<path d="M8120 4810 c-11 -11 -20 -31 -20 -45 0 -30 32 -65 60 -65 28 0 60 35
60 65 0 30 -32 65 -60 65 -11 0 -29 -9 -40 -20z"/>
<path d="M1583 4800 c-29 -12 -35 -66 -10 -82 19 -12 112 -9 125 4 19 19 15
66 -7 78 -24 12 -78 12 -108 0z"/>
<path d="M8520 4803 c-32 -13 -41 -61 -15 -83 20 -16 101 -16 120 0 22 18 19
67 -4 80 -21 11 -76 12 -101 3z"/>
<path d="M2918 2815 c-60 -15 -92 -37 -123 -83 -58 -89 -48 -211 24 -276 29
-27 26 -36 -11 -36 -65 -1 -93 -30 -187 -195 -35 -60 -95 -154 -133 -208 l-70
-99 -65 89 c-36 48 -89 124 -117 168 -133 208 -167 245 -222 245 -30 0 -30 3
0 35 92 99 77 253 -32 329 -52 37 -145 47 -202 22 -134 -58 -172 -237 -73
-347 32 -36 34 -39 14 -39 -56 0 -113 -53 -161 -150 -67 -132 -211 -476 -212
-504 -1 -20 7 -37 26 -53 64 -55 96 -24 176 171 35 86 68 156 72 156 4 0 9
-28 9 -62 1 -35 4 -245 8 -466 l6 -404 24 -19 c30 -25 72 -24 99 1 22 20 22
26 22 275 l0 255 60 0 60 0 0 -255 c0 -242 1 -256 20 -275 46 -46 119 -11 121
58 1 20 2 57 3 82 1 25 3 120 4 213 l2 167 38 0 c26 0 45 7 57 20 18 19 17 25
-8 178 -34 208 -40 252 -34 252 3 0 49 -55 102 -122 167 -215 151 -198 200
-198 56 0 71 15 205 208 58 83 108 151 111 151 11 1 19 -186 26 -587 7 -428 6
-424 63 -437 18 -4 34 1 54 16 l29 22 -5 531 c-3 292 -9 539 -13 548 -4 10
-22 27 -41 39 -35 21 -40 34 -25 57 6 11 39 14 137 13 116 -2 131 -4 149 -22
20 -20 20 -21 1 -32 -10 -7 -29 -21 -42 -32 l-24 -20 -1 -545 -1 -544 22 -18
c31 -25 66 -22 95 7 l25 24 0 491 c0 269 3 490 8 490 4 0 51 -67 105 -148 135
-206 145 -217 195 -217 52 0 73 20 168 155 87 124 113 158 114 146 0 -5 -25
-103 -55 -219 -56 -215 -64 -264 -43 -285 7 -7 40 -12 80 -12 l68 0 0 -198 c0
-186 1 -200 20 -220 30 -32 82 -30 109 4 20 25 21 40 21 220 0 216 -7 194 68
197 l27 1 5 -208 c5 -203 5 -208 29 -227 31 -26 54 -24 90 7 l31 26 0 199 0
199 63 0 c105 1 115 24 72 171 -33 116 -86 340 -83 351 2 5 46 -51 98 -124
110 -154 133 -178 171 -178 40 0 73 32 184 180 55 72 101 127 103 122 1 -5
-20 -69 -49 -143 -99 -261 -101 -271 -73 -314 16 -25 19 -25 155 -25 l139 0 0
-189 c0 -110 4 -202 11 -218 26 -69 89 -98 151 -69 63 30 68 50 68 275 l0 201
135 0 c125 0 136 1 155 22 26 28 25 64 -1 130 -38 94 -120 331 -116 334 2 2
53 -61 112 -140 126 -167 157 -189 213 -151 20 15 122 147 182 237 14 21 28
38 31 38 7 0 -18 -118 -50 -240 -38 -140 -26 -169 67 -170 l52 0 0 -253 c0
-242 1 -255 20 -272 26 -23 74 -23 100 0 17 15 20 31 20 95 0 42 3 157 6 256
l7 179 48 -3 49 -4 0 -247 c0 -282 2 -291 69 -291 26 0 44 7 57 21 18 20 19
39 19 270 l0 249 50 0 c95 0 112 33 76 151 -36 119 -71 262 -65 268 4 3 8 2
10 -4 2 -5 48 -73 102 -149 109 -157 127 -170 189 -139 30 14 59 49 130 153
126 185 137 199 146 193 4 -2 7 -224 7 -493 l0 -489 27 -21 c20 -16 36 -20 58
-16 63 13 60 -17 57 579 l-3 542 -28 26 c-16 15 -34 28 -41 31 -10 3 -10 9 -1
26 11 21 18 22 146 22 128 0 135 -1 146 -22 10 -19 9 -24 -6 -33 -11 -5 -28
-19 -40 -30 -21 -20 -22 -30 -28 -375 -4 -195 -7 -439 -7 -542 l0 -187 26 -20
c18 -14 35 -19 53 -15 58 13 57 11 65 401 7 407 16 623 25 622 3 0 55 -71 114
-159 60 -87 120 -168 133 -181 32 -30 87 -29 121 3 20 18 196 239 225 282 18
27 17 -15 -7 -170 -14 -92 -27 -182 -31 -199 -8 -44 15 -65 72 -65 l45 0 -2
-250 c-3 -231 -2 -251 16 -270 21 -24 72 -27 101 -6 18 13 19 32 24 273 l5
258 58 3 57 3 0 -251 0 -251 25 -24 c30 -31 69 -32 99 -2 23 23 23 23 31 452
5 237 8 447 8 467 0 21 3 35 8 33 4 -3 35 -71 69 -153 34 -81 69 -157 76 -170
31 -48 134 -14 134 44 0 19 -112 288 -194 469 -59 127 -115 185 -180 185 l-28
0 36 40 c19 22 42 56 51 76 53 128 -51 283 -193 286 -69 2 -115 -18 -160 -66
-80 -87 -83 -211 -6 -295 l34 -38 -36 -6 c-56 -9 -96 -47 -157 -150 -52 -88
-203 -305 -231 -335 -11 -11 -28 10 -93 110 -44 68 -107 167 -138 221 -72 121
-110 157 -167 157 l-42 0 31 32 c48 51 67 96 67 158 0 121 -88 210 -209 210
-94 0 -158 -41 -196 -124 -35 -77 -16 -190 40 -240 27 -25 27 -36 -1 -36 -35
0 -84 -35 -111 -77 -13 -21 -56 -92 -95 -158 -39 -66 -93 -153 -120 -193 l-49
-73 -85 133 c-46 73 -111 178 -143 232 l-60 99 -5 128 c-6 116 -9 133 -36 185
-38 76 -93 116 -168 122 -66 5 -117 -10 -164 -52 -55 -48 -76 -105 -78 -211
-1 -49 -2 -104 -3 -120 -1 -36 -290 -506 -310 -505 -3 0 -55 73 -116 162 -60
89 -136 200 -167 246 l-58 84 0 100 c0 55 -5 118 -12 140 -15 50 -80 124 -125
143 -49 21 -126 19 -171 -4 -93 -48 -130 -123 -139 -283 l-6 -113 -166 -237
c-91 -130 -169 -237 -172 -238 -7 0 -129 185 -217 330 -74 122 -112 160 -159
160 -29 0 -29 11 -2 36 92 83 77 254 -29 328 -57 40 -149 48 -208 18 -136 -70
-166 -249 -59 -354 l28 -28 -25 0 c-46 0 -91 -42 -150 -140 -32 -52 -97 -155
-144 -228 -71 -109 -89 -131 -100 -120 -12 13 -181 288 -239 390 -36 62 -84
98 -134 98 l-35 0 36 38 c43 43 68 97 68 144 0 143 -129 247 -262 213z m-1014
-156 c19 -15 26 -30 26 -55 0 -69 -78 -101 -119 -48 -27 34 -27 72 1 101 27
29 57 29 92 2z m1111 -4 c34 -33 33 -77 -1 -104 -41 -32 -80 -28 -104 12 -50
80 40 158 105 92z m1049 4 c51 -40 21 -129 -44 -129 -33 0 -70 40 -70 75 0 32
37 75 64 75 13 0 35 -9 50 -21z m1111 -11 c30 -36 28 -71 -7 -100 -21 -19 -64
-23 -85 -10 -25 16 -42 64 -32 91 22 60 82 69 124 19z m1089 7 c31 -29 33 -63
5 -99 -41 -53 -129 -18 -129 51 0 31 42 73 73 73 13 0 36 -11 51 -25z m1043 3
c48 -45 18 -128 -46 -128 -35 0 -71 40 -71 77 0 30 42 73 71 73 13 0 33 -10
46 -22z m1107 -9 c31 -37 33 -58 5 -93 -54 -69 -155 4 -115 83 27 51 72 55
110 10z m-3214 -278 c0 -15 16 -49 35 -77 30 -42 33 -49 18 -53 -23 -4 -53
-31 -53 -46 0 -15 105 -328 143 -426 l25 -67 -30 -6 c-17 -3 -132 -6 -255 -6
-210 0 -225 1 -218 18 24 59 112 301 136 376 35 103 34 135 -1 153 -28 14 -28
24 -1 62 10 14 23 42 30 61 l11 35 80 1 80 2 0 -27z m1088 -2 c1 -32 15 -62
50 -104 l24 -29 -30 -8 c-54 -14 -56 -26 -32 -140 12 -57 32 -147 46 -200 13
-53 24 -101 24 -107 0 -7 -53 -11 -160 -11 -133 0 -160 2 -160 15 0 8 18 96
40 196 22 100 40 192 40 204 0 26 -16 42 -47 47 -22 3 -21 5 16 49 22 25 42
61 46 80 l6 34 68 1 c68 1 68 1 69 -27z m-4287 -95 c27 -24 25 -54 -4 -54 -13
0 -31 -6 -42 -13 -17 -13 -17 -20 9 -203 15 -104 30 -199 33 -211 5 -23 4 -23
-106 -23 l-111 0 0 213 c0 225 -2 237 -47 237 -24 0 -27 9 -17 47 8 30 22 32
152 28 90 -3 118 -7 133 -21z m2149 6 c27 -27 26 -60 -1 -60 -11 0 -30 -5 -41
-11 -18 -10 -20 -17 -14 -65 6 -50 95 -416 111 -456 7 -17 -6 -18 -184 -18
-105 0 -191 3 -191 8 0 4 27 104 60 222 33 118 63 232 66 252 8 46 -8 68 -47
68 -30 0 -33 8 -23 47 8 28 18 30 142 32 90 1 104 -1 122 -19z m4344 -1 c28
-28 23 -52 -11 -61 l-33 -9 0 -219 0 -220 -116 0 -116 0 6 30 c3 17 17 112 32
211 29 197 27 209 -27 209 -16 0 -29 5 -29 11 0 14 21 52 34 62 20 14 245 3
260 -14z"/>
</g>
</svg>
