<?xml version="1.0" standalone="no"?>
<!DOCTYPE svg PUBLIC "-//W3C//DTD SVG 20010904//EN"
 "http://www.w3.org/TR/2001/REC-SVG-20010904/DTD/svg10.dtd">
<svg version="1.0" xmlns="http://www.w3.org/2000/svg"
 width="564.000000pt" height="590.000000pt" viewBox="0 0 564.000000 590.000000"
 preserveAspectRatio="xMidYMid meet">

<g transform="translate(0.000000,569.000000) scale(0.100000,-0.100000)"
fill="#000000" stroke="none">
<path d="M2530 5669 c-41 -5 -120 -16 -175 -25 -955 -155 -1775 -808 -2140
-1703 -142 -350 -205 -673 -205 -1056 0 -310 38 -563 127 -840 262 -820 859
-1452 1676 -1774 494 -195 1118 -235 1667 -107 867 203 1608 837 1945 1665
142 350 205 673 205 1056 0 310 -38 563 -127 840 -317 991 -1137 1715 -2163
1910 -217 42 -599 58 -810 34z m565 -270 c1090 -108 2008 -942 2219 -2016 36
-184 48 -305 48 -498 0 -420 -92 -800 -283 -1165 -61 -117 -213 -352 -247
-383 -18 -16 -20 -14 -56 67 -134 300 -413 589 -771 798 -292 171 -648 287
-980 319 -189 19 -419 7 -595 -31 -80 -17 -181 -41 -225 -54 -44 -13 -111 -31
-150 -39 -144 -33 -477 -227 -691 -403 -229 -187 -395 -406 -480 -632 l-31
-83 -43 53 c-72 90 -186 268 -249 388 -191 365 -283 745 -283 1165 0 192 12
313 48 498 211 1074 1125 1905 2219 2016 198 20 347 20 550 0z"/>
<path d="M2598 4895 c-424 -67 -776 -398 -889 -837 -125 -490 76 -1017 487
-1280 135 -86 289 -140 460 -160 222 -25 471 34 668 160 354 226 563 666 518
1091 -56 539 -429 951 -929 1026 -117 18 -199 18 -315 0z"/>
</g>
</svg>
